<?xml version="1.0" standalone="no"?>
<!DOCTYPE svg PUBLIC "-//W3C//DTD SVG 20010904//EN"
 "http://www.w3.org/TR/2001/REC-SVG-20010904/DTD/svg10.dtd">
<svg version="1.0" xmlns="http://www.w3.org/2000/svg"
 width="3611.000000pt" height="3611.000000pt" viewBox="0 0 3611.000000 3611.000000"
 preserveAspectRatio="xMidYMid meet">
<metadata>
Created by potrace 1.11, written by Peter Selinger 2001-2013
</metadata>
<g transform="translate(0.000000,3611.000000) scale(0.100000,-0.100000)"
fill="#000000" stroke="none">
<path d="M18748 36095 c-1 -2 -45 -6 -96 -10 -52 -3 -101 -8 -110 -10 -10 -1
-39 -6 -67 -9 -70 -10 -139 -21 -185 -31 -14 -3 -36 -8 -50 -10 -14 -2 -40 -9
-57 -14 -18 -5 -33 -8 -33 -6 0 3 -11 0 -25 -5 -14 -5 -36 -12 -48 -14 -12 -2
-42 -10 -67 -17 -25 -7 -49 -13 -55 -15 -32 -7 -243 -81 -315 -111 -622 -256
-1095 -664 -1355 -1168 -47 -90 -112 -245 -120 -285 -2 -8 -8 -26 -13 -40 -5
-14 -10 -28 -11 -32 0 -5 -1 -9 -2 -10 -6 -22 -27 -121 -35 -163 -1 -11 -6
-36 -9 -55 -19 -115 -23 -298 -11 -508 8 -133 12 -209 21 -372 3 -58 8 -139
10 -180 2 -41 7 -122 10 -180 3 -58 8 -139 10 -180 6 -111 15 -264 20 -360 6
-101 14 -245 20 -355 5 -86 14 -260 20 -365 2 -36 7 -121 11 -190 3 -69 8
-145 9 -170 1 -25 6 -106 10 -180 4 -74 9 -155 10 -180 1 -25 6 -106 10 -180
4 -74 9 -155 10 -180 1 -25 6 -106 10 -180 4 -74 9 -155 10 -180 7 -140 17
-312 20 -360 2 -30 7 -111 10 -180 4 -69 8 -150 10 -180 2 -30 6 -111 10 -180
3 -69 8 -151 10 -182 2 -31 7 -108 10 -170 9 -161 13 -227 20 -358 11 -195 13
-241 20 -360 3 -63 8 -149 10 -190 5 -86 14 -229 20 -345 2 -44 7 -127 10
-185 3 -58 8 -136 10 -175 5 -100 15 -277 20 -365 2 -41 7 -122 10 -180 3 -58
8 -148 11 -200 10 -165 13 -222 19 -347 3 -68 8 -132 10 -143 2 -11 1 -20 -2
-20 -3 0 -47 22 -99 50 -52 27 -94 47 -94 44 0 -2 -10 2 -22 10 -30 19 -277
118 -348 139 -145 43 -175 51 -215 61 -80 19 -112 26 -140 31 -16 3 -41 7 -55
10 -58 12 -116 21 -190 30 -30 4 -66 9 -80 10 -174 23 -578 24 -710 1 -14 -3
-45 -7 -70 -10 -25 -3 -56 -9 -70 -12 -14 -3 -38 -7 -55 -10 -16 -3 -73 -17
-125 -30 -52 -14 -102 -27 -110 -29 -8 -2 -15 -4 -15 -5 0 -1 -7 -3 -15 -5
-28 -5 -175 -58 -186 -67 -7 -5 -21 -11 -33 -13 -33 -6 -247 -113 -350 -174
-225 -134 -395 -269 -580 -459 -263 -272 -501 -641 -629 -977 -42 -111 -45
-119 -47 -127 -2 -5 -3 -9 -5 -10 -1 -2 -3 -10 -5 -18 -3 -8 -16 -53 -31 -100
-32 -105 -30 -98 -39 -137 -4 -18 -9 -33 -10 -33 -2 0 -45 20 -96 44 -130 60
-348 142 -459 171 -142 38 -251 66 -275 70 -16 3 -37 8 -45 10 -52 15 -260 49
-360 60 -14 2 -52 6 -85 10 -93 12 -111 13 -240 21 -217 14 -585 8 -715 -11
-14 -2 -47 -6 -75 -10 -58 -8 -90 -13 -125 -20 -14 -3 -40 -7 -59 -10 -18 -2
-41 -7 -51 -10 -10 -3 -28 -8 -39 -10 -12 -3 -30 -7 -41 -10 -11 -3 -29 -7
-40 -10 -11 -3 -28 -7 -37 -9 -21 -5 -121 -35 -143 -44 -8 -3 -17 -6 -20 -7
-33 -8 -118 -40 -127 -48 -7 -5 -13 -7 -13 -4 0 10 -338 -146 -350 -162 -3 -3
-30 -19 -60 -35 -62 -33 -222 -141 -290 -195 -290 -230 -507 -497 -654 -805
-36 -74 -111 -274 -121 -320 -2 -12 -6 -31 -9 -43 -17 -67 -17 -68 -31 -153
-4 -19 -9 -46 -13 -60 -6 -25 -9 -1131 -16 -7625 -2 -1952 -5 -3590 -7 -3640
-3 -81 7 -343 15 -420 2 -16 7 -59 10 -95 4 -36 9 -81 11 -100 9 -69 17 -125
20 -145 14 -91 18 -116 26 -160 6 -27 12 -61 14 -75 10 -61 59 -285 86 -390
34 -131 33 -127 54 -200 9 -30 18 -62 20 -70 17 -63 116 -364 142 -430 3 -8 7
-19 9 -25 1 -5 21 -55 44 -110 23 -55 43 -104 44 -110 4 -13 18 -47 51 -120
14 -33 33 -76 42 -95 40 -91 181 -366 236 -460 233 -402 410 -623 967 -1211
447 -471 575 -616 755 -854 54 -71 109 -143 122 -160 14 -16 185 -192 381
-390 197 -198 386 -396 420 -440 35 -44 70 -88 78 -98 8 -10 23 -35 33 -55 17
-35 18 -151 17 -2474 -1 -1341 1 -2439 4 -2439 17 -4 953 -3 959 1 3 3 7 1065
8 2360 1 1295 5 2373 9 2395 9 49 10 186 1 241 -32 209 -142 421 -347 674
-108 134 -183 213 -521 550 -172 172 -321 328 -354 375 -70 96 -51 71 -184
235 -165 204 -302 356 -606 675 -576 604 -702 760 -898 1099 -58 102 -209 396
-208 404 1 1 -8 21 -18 45 -23 50 -50 115 -50 122 0 3 -7 18 -15 33 -8 16 -33
80 -56 143 -23 63 -50 137 -60 164 -10 28 -31 91 -45 140 -15 50 -33 107 -41
128 -8 20 -12 37 -9 37 2 0 0 12 -6 27 -6 16 -13 36 -15 46 -14 62 -33 136
-40 162 -7 26 -30 128 -39 175 -3 14 -7 36 -10 50 -15 76 -33 180 -39 230 -2
14 -7 50 -10 80 -4 30 -9 67 -12 82 -4 28 -11 102 -19 208 -2 30 -3 93 -3 140
0 47 2 866 4 1821 l4 1736 113 -39 c61 -21 121 -40 132 -43 11 -2 54 -13 95
-25 41 -12 82 -23 90 -25 8 -2 33 -8 55 -13 22 -6 51 -13 65 -16 14 -3 36 -7
50 -10 14 -4 59 -13 100 -21 41 -8 86 -17 100 -20 13 -2 40 -7 60 -10 20 -3
45 -7 55 -9 11 -2 45 -7 75 -11 30 -4 62 -9 70 -10 17 -3 130 -17 170 -20 47
-4 185 -17 220 -20 184 -18 691 -25 850 -12 114 10 202 20 256 31 12 2 37 7
55 10 37 6 39 7 144 31 82 18 100 23 100 25 0 1 8 3 18 6 9 2 25 6 35 8 9 3
18 5 20 6 1 2 5 3 10 4 41 11 99 30 121 38 14 6 28 12 31 13 3 1 13 5 23 8 9
4 25 10 35 14 9 3 19 7 22 8 74 23 391 188 398 207 2 4 8 8 13 8 31 0 339 242
394 310 62 76 60 76 150 -2 106 -93 207 -168 318 -238 99 -62 347 -193 347
-184 0 4 6 2 13 -4 12 -10 183 -83 202 -86 6 -1 15 -4 20 -7 11 -7 141 -49
165 -54 8 -2 16 -4 18 -5 1 -2 5 -3 10 -4 4 -2 27 -8 52 -15 25 -7 53 -15 62
-17 10 -2 26 -6 36 -8 9 -2 35 -9 57 -15 22 -5 56 -13 75 -16 19 -3 51 -10 70
-15 19 -5 55 -11 80 -14 25 -3 56 -8 69 -11 13 -2 49 -7 80 -11 31 -3 70 -7
86 -9 201 -25 705 -25 856 0 13 2 47 6 74 10 52 6 202 31 245 40 14 4 34 8 45
10 38 9 65 15 88 21 12 3 31 7 43 9 12 3 40 11 63 19 22 9 41 13 41 9 0 -3 7
0 15 7 8 7 15 10 15 7 0 -4 46 10 101 29 486 169 878 424 1142 743 34 40 71
84 82 97 l20 24 72 -103 c220 -312 573 -652 1029 -993 84 -63 157 -114 162
-114 6 0 12 -4 14 -9 4 -11 193 -131 308 -196 97 -55 335 -175 347 -175 5 0
24 -8 43 -19 19 -10 37 -19 40 -19 5 -1 127 -56 224 -102 127 -59 218 -100
224 -100 4 -1 25 -9 47 -20 22 -11 45 -19 52 -20 32 -1 13 -25 -85 -107 -307
-259 -660 -612 -963 -963 -102 -119 -359 -436 -429 -528 -97 -130 -471 -577
-670 -802 -78 -87 -361 -411 -424 -484 -60 -70 -112 -131 -181 -211 -27 -32
-114 -137 -193 -234 -79 -97 -151 -185 -160 -196 -9 -11 -79 -103 -155 -205
-76 -102 -144 -192 -151 -200 -37 -42 -327 -491 -322 -498 3 -5 38 -29 78 -52
40 -23 89 -52 108 -65 113 -72 401 -245 409 -245 5 0 11 -4 13 -8 6 -16 211
-133 218 -125 4 4 64 94 132 198 192 292 436 613 722 950 141 165 438 509 480
555 153 166 623 721 794 938 399 505 617 757 897 1037 290 291 525 493 830
712 203 146 489 330 690 443 17 9 57 32 90 51 l60 34 590 0 590 0 0 483 c0
316 -3 482 -10 483 -5 1 -300 3 -655 4 -355 1 -651 3 -657 4 -7 0 -13 8 -13
16 0 20 -22 19 -62 -3 -31 -18 -70 -19 -698 -17 -440 1 -673 5 -690 12 -14 6
-78 36 -143 67 -65 31 -120 56 -122 56 -6 0 -143 64 -280 130 -129 62 -317
177 -461 280 -88 64 -322 249 -379 301 -16 15 -55 48 -85 74 -105 90 -293 290
-379 405 -127 168 -226 339 -299 515 -33 80 -64 166 -63 172 1 2 -6 20 -14 40
-17 46 -62 214 -70 263 -3 19 -8 49 -12 65 -3 17 -7 37 -8 45 -1 8 -5 34 -9
58 -18 121 -18 120 4 127 23 7 23 8 9 59 -15 53 -26 112 -34 176 -16 125 -19
178 -20 335 0 160 7 302 20 375 2 14 6 41 9 60 3 19 8 46 11 60 2 14 7 39 11
55 8 40 53 174 69 206 12 23 51 61 113 111 52 42 269 139 367 163 52 14 247
53 286 59 108 15 194 24 314 33 135 11 4845 10 4965 0 158 -14 246 -24 365
-41 36 -6 102 -17 115 -21 3 0 28 -5 55 -10 146 -25 462 -109 620 -165 887
-312 1594 -855 2044 -1570 151 -240 308 -595 367 -832 2 -10 6 -27 9 -38 3
-11 7 -29 10 -41 2 -11 6 -28 9 -37 5 -17 14 -57 21 -102 2 -14 7 -36 10 -50
3 -14 8 -49 11 -79 3 -30 8 -64 10 -75 16 -84 19 -472 19 -2771 0 -2065 -3
-2590 -12 -2591 -7 -1 -18 -2 -24 -3 -6 0 -8 -9 -5 -18 3 -10 8 -43 11 -73 2
-30 7 -82 10 -115 12 -127 14 -154 20 -280 13 -283 9 -667 -9 -830 -2 -16 -6
-59 -10 -95 -3 -36 -8 -74 -10 -85 -2 -11 -7 -42 -10 -70 -8 -59 -13 -89 -27
-167 -5 -32 -12 -70 -15 -85 -3 -16 -7 -36 -10 -45 -3 -9 -6 -25 -8 -35 -2
-10 -12 -47 -21 -83 -9 -36 -19 -76 -21 -89 -3 -13 -9 -32 -15 -43 -5 -10 -8
-18 -5 -18 3 0 -2 -16 -10 -35 -8 -19 -11 -35 -8 -35 4 0 2 -6 -4 -13 -5 -6
-16 -32 -23 -57 -16 -55 -14 -51 -23 -75 -33 -85 -71 -177 -87 -212 -10 -24
-19 -46 -19 -49 0 -4 -35 -77 -79 -164 -89 -176 -200 -365 -305 -518 -334
-487 -1000 -1275 -1519 -1797 -199 -200 -266 -258 -447 -391 -255 -187 -399
-331 -543 -547 -122 -183 -232 -448 -273 -660 -2 -10 -5 -26 -8 -35 -3 -9 -8
-37 -11 -62 -8 -57 -16 -108 -20 -131 -20 -102 -25 -603 -10 -924 13 -278 13
-266 14 -1390 l1 -1060 486 0 486 0 -5 1205 c-3 663 -9 1261 -13 1330 -15 244
-9 661 10 756 2 12 7 39 10 60 4 22 12 57 17 79 6 22 12 45 14 50 13 56 70
178 115 247 68 103 149 182 327 314 86 64 167 126 182 138 154 133 216 191
341 316 192 191 427 447 710 770 169 193 162 186 175 202 6 7 56 67 111 133
311 371 617 780 790 1055 97 155 271 483 333 630 96 225 222 583 245 695 3 11
18 74 35 140 16 66 32 136 35 156 3 20 8 42 10 50 3 8 7 30 10 49 3 19 8 45
10 56 2 12 7 39 11 60 3 22 8 50 10 64 2 14 7 48 10 75 19 150 32 277 41 405
4 64 3 6255 -1 6405 -3 101 -12 227 -21 300 -3 22 -7 56 -9 75 -2 19 -7 52
-11 73 -3 20 -7 47 -9 60 -12 86 -70 344 -104 457 -51 175 -150 440 -174 469
-7 8 -11 15 -9 15 15 4 -132 294 -240 476 -77 128 -258 393 -288 420 -3 3 -21
25 -40 50 -217 279 -539 584 -910 863 -47 35 -84 69 -82 76 1 6 5 28 8 49 3
20 7 49 10 63 2 15 6 44 9 65 3 22 7 50 10 64 2 13 7 42 10 65 4 22 8 51 10
65 2 14 6 43 10 65 3 23 7 52 10 65 3 13 7 42 10 65 3 22 10 65 15 95 5 30 12
73 15 95 2 22 7 54 10 70 10 61 15 91 20 130 3 22 7 51 10 65 3 14 7 42 10 64
5 36 7 51 21 129 3 17 7 48 9 67 3 19 7 46 10 60 3 14 7 43 10 65 3 22 7 51
10 65 2 14 7 45 11 70 9 65 12 81 19 125 3 22 8 54 11 70 2 17 6 41 9 55 5 31
15 94 21 140 2 19 8 60 14 90 10 63 19 120 26 169 2 19 6 47 9 63 8 45 13 80
20 123 3 23 7 50 9 60 2 11 7 40 10 65 3 25 8 56 11 70 3 14 8 45 11 70 3 25
8 54 9 65 5 23 10 61 20 125 3 25 8 59 11 75 3 17 7 41 9 55 5 32 15 98 21
130 2 14 7 45 10 70 3 25 8 54 10 65 2 11 6 38 9 60 3 22 7 49 9 60 3 18 10
61 22 138 2 15 6 39 8 55 3 15 7 45 11 67 3 23 7 52 10 65 6 29 14 83 20 135
3 21 7 50 10 64 2 14 6 40 9 57 3 17 8 46 10 65 3 19 7 50 11 69 3 19 8 51 10
70 3 19 7 46 10 60 2 14 7 43 10 65 3 22 7 51 10 65 3 14 8 45 11 70 3 25 8
54 10 65 2 11 7 40 10 65 3 25 8 54 10 65 2 11 6 38 9 60 3 22 7 49 9 60 3 18
10 61 22 138 2 15 6 39 8 55 3 15 7 45 11 67 3 23 7 52 10 65 3 14 7 43 10 65
3 22 7 51 10 65 2 13 7 42 10 65 4 22 8 52 11 66 2 15 6 44 9 65 3 22 7 50 10
64 3 14 7 43 10 65 3 22 7 51 10 65 4 22 9 57 20 135 2 11 6 34 9 50 2 17 8
50 11 75 3 25 8 52 10 60 2 8 6 35 9 60 3 25 8 54 10 65 2 11 7 43 11 70 4 28
8 61 10 75 2 14 6 41 10 60 4 19 8 46 10 60 2 14 6 39 8 55 3 17 9 50 12 75 4
25 9 52 10 60 2 8 6 38 9 65 8 55 16 108 21 135 2 10 6 40 10 67 8 55 13 89
19 118 2 11 7 42 10 68 4 27 9 56 11 65 1 10 6 37 9 62 3 25 8 54 10 65 2 11
7 40 10 65 3 25 8 54 10 65 2 11 7 43 10 70 7 53 11 76 26 165 5 30 12 75 16
100 3 25 8 54 10 65 2 11 5 36 8 55 6 39 15 99 22 145 7 43 12 74 19 119 3 22
7 51 10 65 2 14 6 44 10 66 3 23 8 52 10 65 3 14 8 45 11 70 3 25 8 54 10 65
2 11 7 40 10 65 3 25 8 54 10 65 2 11 7 40 10 65 3 25 7 52 9 60 2 8 7 35 10
60 3 25 8 57 11 73 2 15 6 39 8 55 12 76 19 119 22 137 2 11 6 38 9 60 3 22 7
51 10 65 3 14 7 42 10 64 3 21 7 50 9 65 3 14 7 44 11 66 3 23 8 52 10 65 3
14 7 43 10 65 2 22 7 51 10 65 3 14 8 45 11 70 3 25 8 54 10 65 2 11 7 40 9
65 3 25 8 52 10 60 2 8 7 35 10 60 3 25 8 52 10 60 2 8 7 40 10 70 3 30 8 62
10 70 2 8 7 35 10 60 3 25 8 59 11 75 3 17 7 41 9 55 2 14 6 39 9 55 3 17 8
53 12 80 7 55 10 76 18 120 2 17 7 48 11 70 3 23 7 52 10 65 3 14 8 45 11 70
3 25 8 54 9 65 2 11 7 38 10 59 6 43 13 88 20 126 5 31 15 94 21 140 2 19 9
60 14 90 5 30 12 73 15 95 2 22 7 49 9 60 2 11 7 40 10 65 3 25 8 54 10 65 2
11 7 43 11 70 9 62 15 100 31 196 2 15 6 44 9 65 3 22 7 50 10 64 3 14 7 42
10 64 3 21 7 50 9 65 3 14 7 44 11 66 3 23 8 52 10 65 3 14 8 45 11 70 3 25 7
52 9 60 2 8 7 38 11 65 3 28 8 59 10 70 2 11 6 38 9 60 3 22 7 51 10 65 6 32
20 126 31 210 4 25 10 52 15 61 5 9 12 54 15 100 15 179 5 388 -26 509 -5 19
-12 50 -15 68 -12 72 -80 254 -140 377 -102 210 -232 391 -405 566 -123 125
-332 299 -358 299 -6 0 -12 4 -14 8 -3 10 -113 81 -203 133 -124 72 -422 208
-492 224 -10 3 -51 16 -91 30 -40 14 -81 27 -90 28 -9 2 -37 9 -62 16 -25 7
-53 15 -62 17 -10 2 -28 6 -40 9 -13 3 -34 7 -48 10 -42 8 -74 15 -100 20 -47
10 -85 16 -195 30 -27 3 -64 8 -81 10 -197 27 -715 27 -904 0 -14 -2 -46 -6
-72 -9 -67 -8 -119 -16 -148 -22 -14 -2 -36 -7 -50 -9 -35 -7 -57 -12 -115
-25 -27 -6 -60 -14 -71 -16 -29 -5 -195 -53 -214 -61 -8 -3 -17 -7 -20 -8 -30
-7 -105 -35 -195 -73 -513 -213 -885 -541 -1085 -956 -23 -49 -43 -94 -45
-100 -1 -6 -5 -18 -8 -26 -18 -42 -35 -100 -30 -100 3 0 0 -7 -7 -15 -7 -8 -9
-15 -6 -15 4 0 2 -8 -3 -17 -5 -10 -12 -34 -15 -53 -3 -19 -8 -46 -10 -60 -2
-14 -7 -50 -11 -80 -7 -58 -9 -67 -20 -140 -4 -25 -8 -56 -10 -70 -2 -14 -6
-38 -9 -55 -3 -16 -8 -50 -11 -75 -3 -25 -8 -56 -10 -70 -5 -32 -16 -109 -20
-135 -3 -26 -15 -103 -20 -135 -3 -14 -7 -47 -10 -75 -3 -27 -8 -57 -10 -65
-2 -8 -6 -34 -9 -57 -4 -24 -9 -62 -12 -85 -4 -24 -8 -54 -10 -68 -1 -14 -5
-38 -8 -55 -2 -16 -7 -52 -11 -80 -4 -27 -9 -59 -11 -70 -2 -10 -6 -36 -9 -57
-3 -21 -7 -55 -10 -76 -3 -21 -7 -47 -9 -58 -2 -12 -7 -45 -11 -74 -4 -29 -9
-62 -11 -74 -4 -23 -11 -73 -19 -131 -2 -22 -7 -49 -9 -61 -2 -12 -8 -45 -11
-75 -4 -30 -9 -65 -11 -79 -2 -14 -6 -41 -8 -60 -3 -19 -8 -51 -11 -70 -4 -19
-8 -48 -10 -65 -2 -16 -7 -48 -10 -70 -4 -22 -8 -52 -11 -67 -2 -16 -6 -40 -9
-55 -2 -16 -7 -48 -10 -73 -3 -25 -7 -56 -9 -70 -4 -24 -13 -88 -21 -140 -2
-14 -6 -43 -10 -65 -3 -22 -8 -53 -10 -70 -12 -82 -16 -111 -20 -134 -2 -14
-7 -48 -10 -76 -3 -27 -8 -57 -10 -65 -3 -8 -7 -37 -10 -65 -3 -27 -7 -61 -10
-75 -3 -14 -8 -45 -11 -70 -3 -25 -7 -52 -9 -60 -1 -8 -6 -40 -10 -70 -4 -30
-9 -64 -11 -75 -2 -11 -6 -38 -9 -60 -3 -22 -7 -49 -9 -61 -2 -12 -7 -45 -11
-75 -3 -30 -8 -61 -10 -69 -3 -8 -7 -37 -10 -65 -3 -27 -7 -61 -10 -75 -5 -25
-13 -76 -20 -127 -10 -80 -18 -130 -21 -148 -2 -11 -7 -40 -10 -65 -5 -43 -7
-55 -18 -125 -3 -16 -8 -52 -12 -80 -3 -27 -8 -59 -9 -70 -5 -25 -15 -90 -21
-135 -2 -19 -6 -46 -8 -60 -2 -14 -7 -47 -11 -75 -4 -27 -9 -59 -11 -70 -2
-11 -7 -40 -10 -65 -3 -25 -7 -58 -10 -75 -11 -67 -19 -119 -29 -192 -2 -15
-6 -41 -8 -58 -3 -16 -8 -50 -11 -75 -3 -25 -8 -54 -10 -66 -2 -12 -7 -45 -11
-74 -4 -29 -8 -61 -10 -70 -2 -9 -6 -41 -10 -70 -4 -29 -9 -62 -11 -74 -2 -11
-6 -38 -9 -61 -4 -22 -8 -51 -10 -65 -2 -14 -7 -45 -10 -70 -3 -25 -8 -56 -10
-70 -2 -14 -7 -45 -11 -70 -3 -25 -7 -54 -9 -65 -2 -11 -6 -40 -10 -65 -3 -25
-8 -56 -10 -70 -2 -14 -7 -45 -10 -70 -3 -25 -8 -58 -11 -75 -10 -61 -13 -81
-19 -122 -3 -23 -7 -55 -9 -70 -6 -44 -18 -126 -22 -148 -2 -11 -6 -38 -9 -60
-3 -22 -7 -53 -10 -70 -2 -16 -7 -48 -10 -69 -3 -22 -7 -51 -10 -65 -2 -14 -7
-46 -10 -71 -3 -25 -8 -57 -11 -71 -2 -15 -6 -44 -9 -65 -3 -22 -7 -48 -9 -59
-2 -11 -7 -45 -11 -75 -4 -30 -9 -64 -11 -75 -2 -11 -5 -38 -9 -60 -11 -85
-16 -112 -20 -135 -3 -14 -6 -40 -7 -58 -1 -34 -13 -54 -14 -24 -1 21 -14 255
-19 342 -2 36 -6 115 -10 175 -7 138 -13 231 -20 365 -4 58 -8 134 -10 170 -6
116 -16 293 -21 370 -2 41 -6 116 -9 165 -2 50 -7 135 -10 190 -4 55 -8 132
-10 170 -2 39 -6 122 -10 185 -3 63 -8 149 -10 192 -3 42 -7 118 -10 170 -3
51 -7 138 -11 193 -3 55 -7 129 -9 165 -2 36 -7 121 -11 190 -3 69 -8 145 -9
170 -1 25 -6 104 -10 175 -4 72 -8 155 -10 185 -1 30 -6 114 -10 185 -4 72 -9
150 -10 175 -4 71 -17 299 -20 360 -2 30 -6 107 -9 170 -4 63 -9 151 -11 195
-3 44 -7 121 -10 170 -2 50 -7 133 -10 185 -3 52 -8 136 -10 185 -3 50 -7 128
-10 175 -3 47 -7 128 -10 180 -3 52 -7 133 -10 180 -3 47 -7 130 -10 185 -3
55 -8 136 -10 180 -3 44 -7 121 -10 170 -2 50 -7 133 -10 185 -5 91 -7 122
-20 365 -4 61 -8 139 -10 175 -14 246 -18 311 -20 360 -1 30 -6 109 -10 175
-3 66 -8 149 -10 185 -2 36 -6 110 -9 165 -4 55 -9 138 -11 185 -6 107 -14
263 -20 360 -5 86 -13 235 -20 365 -3 50 -8 128 -11 175 -3 47 -7 157 -8 245
-2 88 -6 169 -9 180 -3 11 -8 36 -11 55 -11 74 -49 217 -82 308 -188 519 -589
944 -1151 1218 -94 46 -176 84 -183 84 -7 0 -26 6 -43 14 -41 19 -112 40 -113
35 0 -2 -7 1 -15 8 -8 6 -27 14 -43 17 -15 3 -49 12 -74 20 -26 8 -58 17 -72
20 -40 8 -70 15 -88 20 -9 3 -33 8 -52 11 -19 3 -46 7 -60 10 -36 7 -79 13
-130 20 -25 3 -63 8 -85 11 -46 6 -501 14 -507 9z m442 -979 c19 -2 49 -7 65
-10 17 -3 48 -8 70 -12 21 -3 73 -15 115 -26 41 -10 82 -21 90 -23 8 -2 53
-17 100 -35 441 -163 763 -479 847 -830 6 -23 12 -95 18 -215 3 -60 8 -144 10
-185 3 -41 7 -120 10 -175 3 -55 7 -138 10 -185 5 -83 9 -157 20 -365 3 -55 7
-138 10 -185 8 -140 15 -250 20 -345 3 -49 7 -133 10 -185 3 -52 7 -131 10
-175 6 -115 14 -267 20 -365 9 -161 16 -275 20 -360 3 -47 7 -128 10 -180 3
-52 7 -133 10 -180 5 -88 13 -227 20 -365 3 -44 8 -127 11 -185 3 -58 7 -132
9 -165 4 -85 16 -300 20 -365 4 -60 15 -257 20 -360 2 -36 6 -112 9 -170 4
-58 8 -143 11 -190 3 -47 7 -125 10 -175 3 -49 7 -133 10 -185 3 -52 7 -133
10 -180 3 -47 7 -130 10 -185 3 -55 7 -138 10 -185 3 -47 8 -123 10 -170 5
-101 13 -234 20 -345 2 -44 7 -127 10 -185 3 -58 8 -141 10 -185 3 -44 7 -123
10 -175 3 -52 8 -133 10 -180 15 -269 23 -425 30 -535 3 -49 7 -135 10 -190 3
-55 7 -131 10 -170 2 -38 7 -124 10 -190 4 -66 8 -145 10 -175 2 -30 7 -111
10 -180 3 -69 8 -150 10 -180 2 -30 7 -111 10 -180 3 -69 8 -150 10 -180 2
-30 7 -111 10 -180 3 -69 8 -150 10 -180 2 -30 6 -111 10 -180 4 -69 8 -151
10 -183 2 -32 7 -113 10 -180 3 -67 8 -147 10 -177 2 -30 7 -111 10 -180 3
-69 8 -150 10 -180 2 -30 7 -109 10 -175 3 -66 8 -149 10 -185 2 -36 6 -114
10 -175 3 -60 8 -144 10 -185 2 -41 7 -122 10 -180 3 -58 7 -139 10 -180 2
-41 7 -122 10 -180 3 -58 8 -139 10 -180 3 -41 7 -120 10 -175 3 -55 7 -138
10 -185 3 -47 7 -128 10 -180 3 -52 7 -135 10 -185 3 -49 8 -126 10 -170 2
-44 7 -132 11 -195 3 -63 7 -140 9 -170 9 -172 17 -321 21 -365 1 -27 6 -104
10 -170 3 -66 8 -142 9 -170 10 -161 13 -372 7 -382 -6 -9 -303 -13 -1217 -16
-666 -3 -1232 -7 -1260 -10 -27 -3 -81 -8 -120 -11 -38 -4 -83 -9 -100 -11
-16 -2 -56 -7 -88 -10 -32 -4 -68 -8 -80 -11 -12 -2 -40 -7 -62 -9 -22 -3 -47
-8 -55 -10 -8 -2 -28 -7 -45 -10 -94 -16 -228 -50 -323 -81 -41 -13 -78 -22
-81 -18 -3 3 -6 22 -7 42 -1 33 -7 161 -19 362 -2 36 -6 117 -10 180 -3 63 -8
144 -10 180 -5 81 -15 261 -20 360 -5 87 -15 266 -20 360 -3 36 -7 115 -10
175 -3 61 -8 144 -10 185 -3 41 -7 118 -10 170 -3 52 -7 140 -11 195 -8 146
-13 227 -19 345 -3 58 -8 139 -10 180 -2 41 -7 120 -10 175 -3 55 -7 141 -10
190 -3 50 -7 133 -10 185 -6 97 -11 186 -20 345 -7 129 -14 267 -20 365 -6
106 -15 264 -20 355 -2 39 -7 124 -11 190 -4 66 -7 192 -8 280 0 88 -4 163 -9
166 -4 3 -9 41 -12 85 -4 80 -10 187 -20 369 -7 121 -12 204 -20 355 -4 63 -8
144 -10 180 -2 36 -6 115 -10 175 -3 61 -8 144 -10 185 -3 41 -7 122 -10 180
-3 58 -8 139 -10 180 -2 41 -7 122 -10 180 -3 58 -8 139 -10 180 -2 41 -7 120
-10 175 -9 168 -14 266 -20 355 -6 95 -12 203 -20 360 -3 58 -8 139 -10 180
-2 41 -7 122 -10 180 -3 58 -8 139 -10 180 -3 41 -7 122 -10 180 -3 58 -7 139
-10 180 -2 41 -7 122 -10 180 -3 58 -8 139 -10 180 -2 41 -7 122 -10 180 -3
58 -7 139 -10 180 -6 106 -15 261 -20 355 -8 155 -16 291 -20 365 -2 41 -7
120 -10 175 -3 55 -8 138 -10 185 -3 47 -7 128 -10 180 -3 52 -7 133 -10 180
-3 47 -7 126 -10 175 -3 50 -7 133 -10 185 -3 52 -7 136 -10 185 -3 50 -7 128
-10 175 -3 47 -7 128 -10 180 -3 52 -7 133 -10 180 -3 47 -7 128 -10 180 -3
52 -7 133 -10 180 -3 47 -7 127 -10 178 -3 50 -7 134 -10 185 -3 50 -7 133
-10 182 -3 50 -7 128 -10 175 -3 47 -7 130 -11 185 -3 55 -7 127 -9 160 -5 93
-17 314 -21 370 -4 71 -5 305 0 335 21 138 76 277 161 404 214 320 653 594
1138 711 10 2 26 6 35 9 9 3 33 8 52 11 19 3 42 8 50 10 25 7 119 20 220 30
36 4 66 9 68 10 5 5 371 -3 412 -9z m6755 -2009 c57 -6 136 -16 165 -21 14 -3
41 -7 60 -10 56 -9 91 -16 160 -32 80 -19 81 -20 100 -27 8 -3 47 -15 85 -28
39 -12 93 -32 120 -44 28 -12 53 -22 57 -23 22 -5 133 -62 208 -106 258 -150
489 -387 583 -596 28 -64 39 -91 42 -105 2 -5 8 -28 14 -50 25 -93 33 -207 18
-270 -15 -66 -18 -84 -33 -182 -3 -21 -7 -49 -10 -63 -2 -14 -6 -43 -9 -65 -3
-22 -7 -51 -10 -65 -3 -14 -8 -45 -11 -70 -3 -25 -8 -54 -10 -65 -2 -11 -7
-40 -10 -65 -3 -25 -7 -52 -9 -60 -2 -8 -7 -37 -11 -65 -3 -27 -8 -59 -10 -70
-2 -10 -6 -37 -9 -60 -3 -22 -8 -51 -10 -65 -5 -25 -7 -39 -21 -130 -3 -25 -8
-54 -10 -65 -4 -28 -11 -72 -19 -125 -3 -25 -8 -58 -11 -75 -3 -16 -7 -43 -10
-60 -6 -39 -11 -70 -19 -125 -4 -25 -9 -56 -11 -70 -1 -14 -5 -38 -8 -55 -3
-16 -8 -48 -11 -69 -3 -22 -7 -52 -10 -68 -8 -45 -13 -80 -20 -123 -3 -23 -7
-50 -9 -60 -2 -11 -7 -45 -11 -75 -4 -30 -9 -64 -11 -75 -2 -10 -6 -35 -9 -55
-3 -20 -8 -47 -10 -60 -3 -14 -7 -43 -10 -65 -2 -22 -7 -51 -10 -65 -2 -14 -8
-45 -11 -70 -7 -52 -10 -73 -18 -115 -7 -40 -18 -114 -21 -145 -2 -14 -5 -38
-8 -55 -3 -16 -8 -48 -12 -70 -3 -23 -7 -50 -9 -60 -3 -18 -7 -39 -22 -140 -3
-16 -7 -41 -9 -55 -2 -14 -6 -43 -10 -65 -3 -23 -7 -50 -9 -60 -2 -11 -7 -40
-10 -65 -3 -25 -8 -54 -10 -65 -2 -11 -7 -42 -10 -70 -4 -27 -9 -57 -11 -65
-2 -8 -6 -35 -9 -60 -3 -25 -8 -56 -11 -70 -2 -13 -7 -42 -10 -65 -4 -22 -8
-52 -11 -66 -2 -15 -7 -47 -10 -70 -8 -56 -11 -77 -18 -114 -2 -16 -8 -50 -11
-75 -7 -49 -12 -82 -21 -132 -3 -18 -7 -48 -10 -67 -5 -36 -11 -80 -19 -121
-2 -14 -7 -43 -10 -65 -3 -23 -7 -50 -9 -61 -2 -12 -7 -45 -11 -74 -4 -29 -9
-62 -11 -74 -2 -11 -6 -36 -9 -56 -3 -20 -7 -45 -9 -56 -2 -12 -7 -45 -11 -74
-4 -29 -9 -62 -11 -74 -2 -12 -7 -37 -10 -56 -3 -19 -7 -46 -10 -60 -2 -14 -7
-45 -10 -70 -5 -45 -10 -75 -19 -119 -2 -12 -7 -44 -10 -70 -7 -47 -9 -58 -18
-121 -3 -19 -8 -53 -12 -75 -3 -23 -8 -52 -10 -65 -3 -14 -8 -45 -10 -70 -3
-25 -8 -52 -10 -60 -2 -8 -7 -35 -10 -60 -3 -25 -8 -58 -11 -75 -3 -16 -7 -46
-10 -65 -2 -19 -9 -60 -14 -90 -9 -57 -20 -128 -25 -167 -3 -24 -15 -94 -21
-128 -2 -11 -6 -38 -9 -60 -3 -22 -7 -51 -10 -65 -2 -13 -7 -42 -10 -65 -4
-22 -8 -51 -10 -65 -2 -14 -7 -45 -11 -70 -3 -25 -8 -54 -10 -65 -2 -11 -6
-38 -9 -60 -3 -22 -8 -51 -10 -65 -3 -14 -8 -45 -11 -70 -3 -25 -8 -54 -10
-65 -2 -11 -6 -38 -9 -60 -3 -22 -7 -51 -10 -65 -5 -26 -15 -88 -30 -194 -7
-48 -14 -93 -20 -126 -3 -14 -7 -43 -10 -65 -2 -22 -7 -49 -9 -60 -2 -11 -7
-40 -10 -65 -3 -25 -8 -56 -11 -70 -3 -14 -7 -45 -10 -70 -3 -25 -7 -56 -10
-70 -10 -48 -24 -135 -31 -195 -2 -16 -6 -41 -9 -55 -3 -14 -8 -45 -11 -70 -3
-25 -8 -54 -10 -65 -2 -11 -7 -40 -10 -65 -3 -25 -8 -54 -10 -65 -2 -11 -6
-38 -9 -60 -3 -22 -7 -51 -10 -65 -3 -14 -8 -45 -11 -70 -3 -25 -8 -54 -10
-65 -2 -10 -6 -37 -9 -60 -9 -61 -15 -97 -20 -125 -3 -14 -8 -45 -11 -70 -3
-25 -7 -54 -9 -65 -2 -11 -7 -38 -10 -59 -3 -22 -7 -52 -10 -67 -3 -15 -7 -44
-10 -65 -3 -22 -7 -50 -10 -64 -2 -13 -7 -42 -10 -65 -4 -22 -8 -51 -10 -65
-2 -14 -6 -43 -10 -65 -3 -23 -8 -52 -10 -65 -3 -14 -8 -45 -11 -70 -3 -25 -8
-52 -9 -62 -2 -9 -7 -38 -11 -65 -3 -26 -8 -57 -10 -68 -2 -10 -6 -37 -9 -60
-3 -22 -10 -65 -15 -95 -5 -30 -12 -75 -16 -100 -3 -25 -7 -54 -9 -65 -4 -23
-10 -59 -20 -125 -3 -25 -8 -58 -11 -75 -3 -16 -7 -41 -9 -55 -2 -14 -6 -38
-9 -55 -6 -40 -16 -102 -21 -145 -3 -19 -7 -46 -10 -60 -3 -14 -8 -45 -11 -70
-5 -45 -10 -75 -19 -119 -2 -12 -7 -42 -9 -65 -3 -22 -8 -52 -10 -66 -3 -14
-7 -41 -10 -60 -14 -91 -18 -117 -22 -140 -2 -14 -6 -45 -9 -70 -3 -25 -8 -52
-10 -60 -2 -8 -7 -35 -10 -60 -3 -25 -8 -56 -10 -70 -3 -14 -7 -40 -10 -57 -3
-18 -7 -45 -9 -60 -7 -43 -18 -115 -22 -143 -1 -14 -5 -38 -8 -55 -3 -16 -8
-48 -11 -69 -3 -22 -7 -51 -10 -65 -2 -14 -6 -44 -10 -66 -3 -23 -7 -52 -10
-65 -3 -13 -7 -42 -10 -65 -9 -57 -15 -96 -20 -125 -2 -14 -7 -43 -10 -65 -3
-23 -7 -50 -9 -60 -2 -11 -7 -40 -10 -65 -3 -25 -8 -54 -10 -65 -2 -11 -7 -45
-12 -75 -4 -30 -9 -58 -10 -62 -1 -5 -2 -15 -3 -23 -1 -13 -6 -13 -38 2 -21 8
-48 20 -60 24 -38 15 -72 29 -95 39 -26 12 -228 81 -243 84 -5 1 -14 4 -20 7
-5 4 -23 10 -40 14 -16 5 -34 10 -40 11 -32 11 -304 85 -323 89 -12 2 -30 6
-40 9 -9 3 -28 7 -42 10 -14 3 -36 8 -50 11 -14 3 -36 7 -50 10 -14 3 -36 7
-50 10 -14 3 -41 8 -60 11 -19 3 -42 7 -50 9 -8 2 -28 6 -45 9 -16 2 -50 8
-75 12 -25 4 -56 8 -70 9 -14 2 -50 6 -80 10 -30 4 -68 8 -85 10 -16 2 -61 7
-100 11 -38 3 -90 8 -115 11 -25 3 -400 7 -835 10 -548 3 -792 8 -797 16 -3 5
-4 20 -2 31 2 12 6 39 9 61 3 22 7 51 10 65 3 14 7 43 10 65 2 22 7 49 9 61 2
12 7 45 11 74 4 29 8 61 10 70 2 9 6 41 10 70 4 29 8 60 10 69 1 9 6 41 10 71
4 30 9 64 11 75 2 10 6 37 9 60 3 22 8 51 10 65 3 14 7 45 10 70 3 25 7 56 10
70 5 28 14 87 21 139 2 19 6 46 9 60 2 14 7 46 10 70 3 23 7 55 10 70 3 15 7
43 9 62 3 19 7 48 10 64 2 17 7 50 10 75 3 25 8 54 10 65 2 11 7 40 10 65 3
25 8 56 11 69 4 21 9 62 20 151 2 14 5 39 8 55 3 17 8 50 12 75 4 25 9 59 11
75 3 17 7 46 9 65 2 19 7 51 10 70 4 19 8 49 10 65 4 29 12 81 21 140 3 17 7
44 9 60 5 40 16 115 20 140 2 11 6 43 10 70 6 47 9 66 20 125 2 14 6 45 9 70
3 25 8 54 10 65 2 11 7 45 11 75 4 30 9 64 11 75 7 46 13 92 18 130 3 22 8 49
10 61 2 12 8 45 11 75 4 30 9 63 10 74 5 38 16 110 21 140 3 17 7 44 9 60 2
17 7 48 10 70 4 22 8 51 10 65 2 14 7 45 11 70 3 25 8 56 10 70 1 14 5 39 8
55 2 17 7 53 11 80 4 28 9 57 10 66 2 9 6 40 10 69 4 29 9 62 11 74 2 11 6 38
9 61 4 22 8 51 10 65 2 14 7 45 10 70 3 25 8 57 11 71 2 15 6 44 9 65 3 22 7
48 9 60 2 12 7 45 11 74 4 29 8 61 10 70 2 9 6 41 10 70 4 29 8 61 10 70 2 9
6 41 10 70 4 29 9 62 11 74 2 11 6 38 9 61 4 22 8 51 10 65 2 14 7 45 11 70 3
25 7 54 9 65 2 11 6 43 10 70 4 28 9 57 10 66 2 9 6 40 10 70 3 30 9 68 12 84
7 41 10 62 17 121 4 28 9 61 11 75 3 13 8 44 11 69 3 25 8 54 10 65 4 20 9 56
20 135 3 25 7 54 9 65 2 11 6 40 10 65 3 25 8 56 10 70 2 14 6 44 10 66 3 23
8 59 11 80 3 22 7 50 9 64 2 14 6 39 9 55 3 17 8 50 11 75 3 25 7 56 10 70 3
14 8 43 10 65 5 39 7 49 19 132 4 23 9 55 11 70 10 80 18 130 21 148 2 11 7
40 10 65 3 25 7 59 10 75 3 17 7 41 9 55 5 35 15 111 20 140 2 14 6 39 9 55 3
17 8 50 11 75 8 55 12 83 20 135 3 22 7 54 9 70 3 17 7 44 9 60 5 27 13 85 22
152 3 23 12 80 21 138 3 17 7 46 10 65 6 51 14 103 18 126 2 12 7 45 11 74 4
29 9 62 11 74 2 11 6 36 8 56 13 94 17 117 20 136 2 12 7 45 11 74 4 29 9 62
11 74 4 23 11 73 19 131 2 22 7 49 9 61 2 12 7 45 11 74 4 29 8 61 10 70 2 9
6 41 10 70 4 29 9 62 11 74 2 11 6 38 9 61 3 22 8 51 10 65 2 14 7 45 10 70 3
25 8 56 11 70 2 14 6 43 9 65 2 22 6 54 9 70 9 53 15 89 21 135 3 25 8 59 11
75 6 32 8 46 19 135 4 30 8 57 10 60 2 3 6 34 10 70 4 36 9 74 11 85 7 33 13
68 18 110 3 22 8 60 12 85 3 25 7 54 9 65 2 11 6 40 10 65 3 25 8 59 11 75 5
28 7 45 19 135 3 19 7 44 9 56 2 12 8 45 11 75 4 30 9 63 11 74 5 34 13 88 18
130 3 22 7 49 10 60 2 11 7 45 11 75 4 30 9 64 11 75 11 75 15 104 19 135 2
19 6 44 9 56 2 12 7 45 11 74 4 29 9 62 11 74 4 22 11 72 18 126 3 19 8 53 11
75 10 66 14 88 20 135 3 25 10 70 15 100 5 30 12 80 15 110 4 30 8 57 10 60 2
3 6 32 9 65 4 33 12 78 18 100 5 22 11 45 12 50 9 48 81 160 151 234 211 224
582 384 1035 447 14 2 57 6 95 10 39 3 71 8 73 9 5 4 459 -3 507 -8z m-10850
-7651 c117 -11 163 -17 240 -32 11 -2 34 -7 50 -9 17 -3 66 -15 110 -26 44
-12 87 -22 95 -24 49 -12 230 -84 325 -129 258 -126 464 -301 578 -495 39 -66
75 -153 84 -201 1 -8 6 -35 11 -60 4 -25 7 -1865 6 -4090 l-1 -4045 -22 -65
c-66 -191 -208 -351 -457 -512 -48 -31 -260 -135 -302 -148 -15 -5 -64 -22
-109 -38 -46 -17 -83 -28 -83 -25 0 3 -7 0 -15 -7 -8 -7 -15 -10 -15 -7 0 3
-24 -1 -52 -9 -29 -8 -64 -16 -78 -19 -14 -3 -36 -7 -50 -10 -31 -7 -52 -11
-115 -20 -27 -3 -61 -8 -75 -11 -63 -11 -199 -18 -350 -18 -211 0 -313 8 -500
40 -110 18 -110 18 -210 44 -47 12 -101 26 -120 31 -44 10 -248 88 -315 120
-360 168 -615 427 -652 664 -9 54 -9 7209 0 7310 4 44 9 91 11 105 3 14 7 41
10 60 3 19 8 46 11 60 3 14 8 38 11 54 7 39 39 154 53 189 6 15 7 27 4 27 -4
0 -2 5 5 12 7 7 12 18 12 26 0 8 6 28 14 45 58 134 99 219 129 272 157 280
415 549 677 706 69 42 202 109 225 115 6 2 42 15 80 29 39 15 77 28 85 30 8 2
40 10 70 18 30 8 71 17 90 21 19 3 46 8 60 11 14 3 57 8 95 11 39 3 71 7 73 8
4 5 237 -2 307 -8z m-4505 -1840 c47 -4 99 -9 115 -10 98 -11 142 -16 160 -20
11 -2 40 -7 65 -10 25 -3 56 -8 70 -11 50 -10 76 -15 105 -20 17 -3 48 -11 70
-16 22 -6 48 -13 57 -15 44 -10 55 -13 78 -22 14 -5 30 -10 35 -11 32 -5 203
-65 280 -98 244 -107 426 -246 460 -352 9 -27 11 -837 10 -3346 -1 -1820 -5
-3326 -9 -3345 -42 -212 -148 -369 -373 -550 -37 -30 -165 -107 -241 -145
-136 -68 -363 -141 -497 -160 -23 -3 -52 -8 -65 -10 -123 -25 -634 -25 -855 0
-16 1 -64 6 -105 10 -116 11 -114 11 -255 32 -22 3 -49 7 -60 8 -72 10 -112
17 -126 21 -9 2 -33 7 -54 9 -20 3 -41 7 -45 10 -4 3 -25 7 -46 11 -22 3 -82
17 -134 31 -52 13 -99 26 -105 27 -8 2 -83 24 -105 31 -126 40 -355 147 -424
200 l-36 28 3 3306 c1 1818 6 3320 10 3336 6 23 30 105 42 145 36 114 146 285
270 416 126 134 369 292 575 374 30 12 64 26 75 30 11 5 38 14 60 20 22 6 47
14 55 17 8 3 20 7 27 9 7 1 40 9 75 18 35 8 77 18 93 21 17 3 44 8 60 11 48 9
75 13 160 19 44 4 81 8 82 9 5 5 364 -2 443 -8z"/>
</g>
</svg>
