<?xml version="1.0" encoding="UTF-8" standalone="no"?>
<!DOCTYPE svg PUBLIC "-//W3C//DTD SVG 1.1//EN" "http://www.w3.org/Graphics/SVG/1.1/DTD/svg11.dtd">
<svg width="100%" height="100%" viewBox="0 0 21260 1182" version="1.1" xmlns="http://www.w3.org/2000/svg" xmlns:xlink="http://www.w3.org/1999/xlink" xml:space="preserve" xmlns:serif="http://www.serif.com/" style="fill-rule:evenodd;clip-rule:evenodd;stroke-linejoin:round;stroke-miterlimit:2;">
    <g id="chaos5_100" transform="matrix(23.5983,0,0,23.5978,9196.75,-611.049)">
        <path d="M61.172,27.998C64.292,28.507 68.36,29.66 71.622,32.262C71.399,30.902 70.586,29.575 69.375,28.683C67.973,27.65 66.079,27.155 64.05,27.295C63,27.366 62.023,27.611 61.172,27.998ZM53.697,33.01C54.923,33.01 56.216,33.264 57.509,33.769C57.468,33.664 57.43,33.558 57.397,33.45C57.021,32.237 57.211,30.992 57.96,29.754C58.244,29.285 58.601,28.859 59.019,28.478C56.231,28.134 51.875,27.901 48.718,29.477C50.011,30.374 50.887,31.918 50.958,33.486C51.807,33.167 52.731,33.01 53.697,33.01ZM49.975,34.885C49.285,35.385 48.707,36.068 48.317,36.845C49.13,36.337 49.694,35.663 49.975,34.885ZM47.943,29.917C47.703,30.072 47.473,30.24 47.253,30.422C45.711,31.701 45.48,33.32 45.556,34.452C45.628,35.506 45.995,36.606 46.573,37.613C46.806,37.542 47.033,37.464 47.257,37.375C47.264,37.355 47.271,37.334 47.277,37.314C47.764,35.836 48.841,34.548 50.176,33.835C50.18,33.747 50.18,33.658 50.177,33.569C50.128,32.094 49.233,30.636 47.943,29.917ZM46.267,29.468C45.603,29.468 44.932,29.669 44.292,30.069C42.49,31.193 41.776,33.934 42.701,36.178C43.015,36.937 43.428,37.588 43.92,38.151C44.548,38.059 45.18,37.958 45.795,37.818C45.216,36.756 44.849,35.609 44.773,34.505C44.646,32.619 45.33,30.999 46.753,29.819C46.856,29.732 46.963,29.649 47.07,29.568C46.806,29.501 46.536,29.468 46.267,29.468ZM47.01,38.299C47.021,38.315 47.031,38.33 47.042,38.346C47.045,38.325 47.048,38.306 47.05,38.285C47.036,38.29 47.023,38.294 47.01,38.299ZM62.896,37.547C62.938,37.566 62.978,37.584 63.017,37.602C64.307,38.188 65.649,38.734 66.947,39.262C67.221,39.373 67.495,39.485 67.77,39.598C68.077,39.23 68.396,38.871 68.708,38.518C70.137,36.906 71.485,35.382 71.666,33.407C71.669,33.381 71.671,33.354 71.673,33.327C68.431,30.481 64.159,29.27 60.952,28.758C60.709,28.719 60.417,28.672 60.085,28.623C59.484,29.051 58.989,29.569 58.632,30.16C58.003,31.198 57.839,32.228 58.147,33.219C58.263,33.594 58.44,33.95 58.658,34.284C60.265,35.099 61.7,36.215 62.896,37.547ZM44.608,38.839C45.376,39.515 46.275,40.037 47.248,40.459C47.152,40.183 47.084,39.897 47.045,39.603C46.746,39.264 46.47,38.902 46.22,38.524C45.69,38.656 45.149,38.754 44.608,38.839ZM48.301,40.869C48.369,40.894 48.438,40.917 48.506,40.94C48.408,40.869 48.312,40.796 48.217,40.721C48.244,40.772 48.273,40.821 48.301,40.869ZM53.737,40.18C55.528,40.199 57.455,40.604 59.489,41.389C59.422,40.515 59.153,39.627 58.469,39.021C57.939,38.551 57.206,38.344 56.397,38.428C55.433,38.532 54.534,39.035 53.994,39.775C53.9,39.904 53.815,40.038 53.737,40.18ZM50.822,41.337C51.348,41.565 51.89,41.755 52.445,41.913C52.47,41.605 52.517,41.302 52.588,41.009C52.476,41.02 52.364,41.031 52.253,41.046C51.763,41.107 51.284,41.205 50.822,41.337ZM63.956,38.872C64.762,40.008 65.408,41.255 65.863,42.576C66.041,42.147 66.252,41.73 66.495,41.33C66.726,40.953 66.983,40.589 67.256,40.235C67.055,40.153 66.853,40.071 66.651,39.989C65.765,39.627 64.856,39.258 63.956,38.872ZM53.216,42.113C55.172,42.565 57.258,42.676 59.296,42.701L59.462,42.703C59.478,42.553 59.491,42.396 59.499,42.236C59.431,42.208 59.362,42.181 59.295,42.155C57.192,41.334 55.185,40.937 53.411,40.965C53.301,41.328 53.236,41.714 53.216,42.113ZM60.251,42.71L60.542,42.713C60.565,42.713 60.589,42.713 60.611,42.714C60.496,42.661 60.381,42.609 60.265,42.558C60.261,42.609 60.256,42.659 60.251,42.71ZM62.445,42.736C63.341,42.754 64.24,42.79 65.135,42.868C64.547,41.146 63.614,39.551 62.418,38.189C61.283,37.646 59.297,36.527 58.133,34.899C58.132,34.899 58.131,34.898 58.13,34.898C55.569,33.647 52.958,33.452 50.916,34.349C50.727,35.638 49.965,36.745 48.718,37.52C48.456,37.683 48.187,37.824 47.91,37.95C47.804,38.399 47.767,38.844 47.799,39.272C48.274,39.781 48.808,40.227 49.379,40.583C49.524,40.674 49.672,40.761 49.821,40.844C50.558,40.565 51.343,40.368 52.155,40.267C52.387,40.239 52.62,40.217 52.856,40.202C52.992,39.885 53.161,39.586 53.361,39.312C54.029,38.398 55.132,37.776 56.313,37.648C57.335,37.537 58.291,37.816 58.988,38.433C59.815,39.166 60.258,40.3 60.291,41.714C61.021,42.026 61.738,42.37 62.445,42.736ZM68.532,39.911C70.762,40.835 73.003,41.835 75.065,43.133C75.334,42.524 75.705,41.948 76.161,41.459C75.876,39.074 74.827,36.776 73.039,34.702C72.825,34.455 72.605,34.217 72.377,33.989C72.012,35.971 70.633,37.529 69.296,39.037C69.041,39.325 68.783,39.615 68.532,39.911ZM58.796,43.478C58.969,43.532 59.141,43.589 59.312,43.649C59.322,43.595 59.333,43.54 59.344,43.487L59.286,43.487C59.123,43.484 58.959,43.482 58.796,43.478ZM75.731,43.566C75.886,43.671 76.038,43.78 76.189,43.889C76.23,43.46 76.246,43.033 76.239,42.608C76.037,42.909 75.866,43.233 75.731,43.566ZM63.995,43.575C64.443,43.829 64.888,44.087 65.329,44.348C65.36,44.19 65.396,44.033 65.435,43.877C65.418,43.812 65.4,43.745 65.383,43.68C64.922,43.634 64.459,43.601 63.995,43.575ZM49.219,41.987C49.686,42.429 50.226,42.826 50.782,43.237C51.042,43.428 51.301,43.619 51.553,43.815C52.108,44.247 52.705,44.796 53.175,45.44C53.134,45.358 53.094,45.275 53.055,45.191C52.69,44.4 52.486,43.569 52.439,42.756C51.374,42.531 50.283,42.291 49.219,41.987ZM75.482,44.348C75.457,44.458 75.436,44.57 75.418,44.68C75.293,45.471 75.326,46.266 75.457,47.038C75.735,46.286 75.94,45.531 76.069,44.78C75.878,44.632 75.683,44.489 75.482,44.348ZM37.192,47.082C39.64,47.102 42.086,47.209 44.529,47.406C44.653,46.204 45.034,45.053 45.685,44.052C46.261,43.166 47.046,42.397 47.976,41.783C47.911,41.699 47.849,41.614 47.789,41.525C46.211,40.949 44.754,40.164 43.613,38.988L42.997,39.077C41.117,39.359 39.203,39.801 37.936,41.118C36.538,42.573 36.221,45.001 37.163,47.021C37.173,47.041 37.183,47.062 37.192,47.082ZM66.526,43.028C67.637,43.188 68.732,43.434 69.799,43.813C71.818,44.531 74.169,46.138 74.847,48.466C74.876,48.406 74.904,48.345 74.934,48.283C74.607,47.107 74.441,45.837 74.643,44.559C74.678,44.335 74.728,44.111 74.792,43.888C72.674,42.535 70.334,41.502 68.01,40.544C67.702,40.933 67.414,41.33 67.165,41.739C66.914,42.15 66.701,42.582 66.526,43.028ZM45.327,47.473C45.629,47.5 45.93,47.528 46.231,47.557C48.33,47.762 50.75,48.057 52.981,48.958C53.123,48.673 53.214,48.374 53.243,48.073C53.394,46.576 52.145,45.268 51.071,44.434C50.825,44.242 50.571,44.056 50.317,43.868C49.69,43.406 49.049,42.934 48.498,42.378C47.619,42.942 46.878,43.655 46.343,44.48C45.771,45.361 45.436,46.391 45.327,47.473ZM66.474,45.031C66.615,45.115 66.758,45.201 66.899,45.286C69.243,46.698 71.644,48.141 74.192,49.113C73.793,46.839 71.493,45.248 69.535,44.551C68.481,44.176 67.385,43.938 66.27,43.784C66.261,43.816 66.252,43.848 66.243,43.879C66.335,44.261 66.41,44.645 66.474,45.031ZM75.214,49.473C75.255,49.487 75.295,49.499 75.336,49.512C75.316,49.459 75.297,49.406 75.277,49.353C75.256,49.393 75.235,49.433 75.214,49.473ZM76.916,44.45C78.889,46.062 80.388,48.049 81.355,50.291C81.773,50.275 82.19,50.245 82.608,50.207C83.271,48.877 83.612,47.39 83.537,45.898C83.488,44.934 83.247,43.544 82.375,42.396C81.604,41.378 80.417,40.716 79.295,40.769C78.408,40.78 77.619,41.157 76.984,41.737C77.063,42.633 77.04,43.539 76.916,44.45ZM76.288,49.786C76.701,49.893 77.119,49.985 77.541,50.06C78.523,50.234 79.511,50.308 80.5,50.308C79.64,48.43 78.381,46.749 76.762,45.346C76.597,46.136 76.355,46.928 76.035,47.717C75.95,47.929 75.861,48.138 75.768,48.345C75.919,48.846 76.099,49.328 76.288,49.786ZM59.884,44.711C59.588,46.035 59.309,47.285 59.578,48.51C59.771,49.384 60.44,50.221 61.244,50.592C61.62,50.765 62.192,50.907 62.769,50.603C63.644,50.137 63.89,48.943 63.623,48.057C63.365,47.196 62.693,46.389 61.627,45.658C61.065,45.275 60.483,44.968 59.884,44.711ZM37.643,47.871C38.512,49.171 39.876,50.218 41.532,50.844C42.116,50.696 42.737,50.572 43.397,50.474C43.801,50.413 44.25,50.358 44.722,50.331C44.558,49.621 44.478,48.901 44.485,48.19C42.207,48.006 39.925,47.9 37.643,47.871ZM45.546,50.323C46.119,50.343 46.706,50.426 47.273,50.612C47.776,50.777 48.234,51.022 48.628,51.325C49.586,51.183 50.68,50.96 51.594,50.409C51.96,50.189 52.277,49.921 52.534,49.625C50.44,48.809 48.15,48.532 46.154,48.338C45.866,48.31 45.577,48.282 45.289,48.257C45.289,48.943 45.375,49.639 45.546,50.323ZM81.663,51.063C81.718,51.212 81.77,51.362 81.82,51.513C81.933,51.357 82.041,51.197 82.144,51.033C81.983,51.045 81.823,51.055 81.663,51.063ZM43.154,51.306C43.768,51.43 44.41,51.507 45.087,51.537C45.033,51.395 44.983,51.251 44.937,51.108C44.431,51.125 43.944,51.185 43.512,51.249C43.392,51.268 43.272,51.286 43.154,51.306ZM45.786,51.121C45.837,51.266 45.892,51.409 45.95,51.551C46.402,51.546 46.869,51.522 47.352,51.479C47.247,51.434 47.14,51.394 47.029,51.358C46.626,51.225 46.205,51.153 45.786,51.121ZM66.773,50.194C67.08,50.852 67.47,51.471 67.94,52.031C68.656,52.884 69.541,53.576 70.521,54.09C71.904,52.907 73.106,51.49 74.066,49.905C71.44,48.925 68.995,47.463 66.607,46.027C66.76,47.413 66.774,48.815 66.773,50.194ZM73.811,51.694C73.113,52.64 72.328,53.512 71.471,54.297C71.622,54.197 71.77,54.091 71.914,53.981C72.767,53.33 73.415,52.537 73.811,51.694ZM76.685,50.688C76.695,50.71 76.705,50.733 76.716,50.754C76.926,51.206 77.147,51.655 77.367,52.103C77.731,52.841 78.1,53.592 78.425,54.364C79.494,53.862 80.444,53.133 81.228,52.252C81.111,51.859 80.98,51.471 80.831,51.091C79.7,51.103 78.547,51.034 77.404,50.831C77.163,50.789 76.923,50.74 76.685,50.688ZM72.176,54.763C73.972,55.297 75.929,55.293 77.699,54.663C77.382,53.91 77.02,53.174 76.663,52.449C76.44,51.995 76.218,51.542 76.005,51.086C75.908,50.879 75.812,50.665 75.715,50.445C75.481,50.379 75.248,50.309 75.018,50.235C74.871,51.84 73.922,53.436 72.391,54.604C72.319,54.658 72.248,54.711 72.176,54.763ZM46.315,52.328C46.614,52.892 46.978,53.427 47.402,53.917C47.846,54.428 48.349,54.897 48.903,55.319C49.204,54.793 49.347,54.206 49.238,53.611C49.141,53.072 48.838,52.564 48.394,52.151C47.671,52.247 46.98,52.307 46.315,52.328ZM66.769,51.777C66.771,53.187 66.806,54.69 67.035,56.171C67.354,56.074 67.675,55.975 67.995,55.869C68.645,55.499 69.27,55.082 69.865,54.622C68.911,54.081 68.05,53.381 67.34,52.535C67.135,52.292 66.945,52.039 66.769,51.777ZM64.109,56.232C64.725,56.262 65.321,56.355 65.889,56.513C66.019,56.476 66.148,56.438 66.277,56.4C65.974,54.522 65.981,52.633 65.985,50.922L65.986,50.758C65.986,50.625 65.987,50.491 65.987,50.358C65.273,48.746 65.005,46.937 65.2,45.183C64.231,44.608 63.247,44.04 62.246,43.516C61.675,43.506 61.104,43.501 60.537,43.497L60.141,43.494C60.134,43.53 60.127,43.565 60.121,43.601C60.1,43.711 60.077,43.821 60.055,43.931C60.743,44.216 61.415,44.564 62.07,45.011C63.288,45.846 64.064,46.794 64.375,47.831C64.727,49.003 64.413,50.615 63.138,51.295C62.467,51.653 61.679,51.656 60.915,51.304C59.9,50.835 59.055,49.781 58.813,48.678C58.505,47.281 58.817,45.882 59.121,44.531C59.129,44.494 59.137,44.458 59.145,44.423C58.123,44.058 57.057,43.806 55.956,43.545L55.102,43.341C54.502,43.195 53.876,43.06 53.236,42.925C53.3,43.572 53.477,44.231 53.768,44.863C54.584,46.638 56.13,48.029 57.385,49.043C57.777,49.36 58.177,49.669 58.577,49.978C59.69,50.839 60.841,51.731 61.825,52.787C62.772,53.805 63.536,54.974 64.109,56.232ZM53.699,49.275C55.873,50.313 57.512,51.879 58.349,53.737C58.878,54.909 59.056,56.145 58.958,57.363C60.376,56.676 61.844,56.297 63.243,56.232C62.725,55.174 62.058,54.19 61.251,53.323C60.311,52.312 59.186,51.441 58.097,50.599C57.692,50.285 57.289,49.973 56.893,49.653C55.855,48.815 54.627,47.728 53.719,46.368C53.961,46.917 54.088,47.515 54.024,48.151C53.985,48.534 53.874,48.913 53.699,49.275ZM63.592,57.005C62.403,57.017 61.148,57.281 59.911,57.794C61.171,57.651 62.415,57.409 63.636,57.114C63.621,57.078 63.606,57.041 63.592,57.005ZM49.552,55.777C51.5,57.048 53.973,57.808 56.666,57.922C57.078,57.94 57.49,57.943 57.898,57.934C57.974,57.889 58.05,57.844 58.127,57.801C58.309,56.55 58.179,55.267 57.634,54.059C56.863,52.35 55.328,50.903 53.283,49.945C52.948,50.382 52.513,50.772 51.998,51.081C51.155,51.589 50.207,51.846 49.323,52.006C49.674,52.446 49.914,52.946 50.01,53.47C50.161,54.302 49.961,55.092 49.552,55.777ZM58.745,58.684C58.687,58.927 58.617,59.168 58.538,59.407C59.398,59.018 60.292,58.699 61.185,58.411C60.379,58.539 59.565,58.634 58.745,58.684ZM41.494,51.665C40.021,52.066 38.81,52.642 37.822,53.407C36.112,54.736 35.143,56.702 35.291,58.54C35.343,59.171 35.509,59.75 35.759,60.279C35.972,59.886 36.243,59.531 36.568,59.224C38.025,57.847 40.194,57.641 41.699,57.606C42.023,57.598 42.351,57.596 42.678,57.594C44.052,57.586 45.474,57.577 46.736,57.109C47.368,56.875 47.979,56.465 48.441,55.952C47.839,55.494 47.292,54.987 46.811,54.431C46.25,53.785 45.789,53.077 45.429,52.333C44.107,52.306 42.9,52.115 41.785,51.762C41.688,51.731 41.591,51.698 41.494,51.665ZM67.455,58.069C68.04,60.034 69.067,61.632 70.402,62.669C70.397,62.632 70.391,62.595 70.385,62.558C70.059,60.624 69.051,59.086 67.455,58.069ZM53.178,62.709C53.478,62.777 53.773,62.856 54.063,62.946C54.863,61.784 56.039,60.746 57.514,59.923C57.665,59.573 57.795,59.215 57.899,58.852C56.19,59.931 54.662,61.334 53.178,62.709ZM54.834,63.212C54.907,63.24 54.98,63.269 55.052,63.298C55.691,62.735 56.267,62.071 56.745,61.342C55.975,61.905 55.331,62.535 54.834,63.212ZM71.255,63.231C73.218,64.301 75.737,64.103 77.174,62.742C78.74,61.262 78.876,58.819 78.481,57.026C78.359,56.473 78.19,55.928 77.99,55.392C75.851,56.161 73.457,56.087 71.332,55.303C70.379,55.85 69.346,56.249 68.314,56.59C67.995,56.77 67.672,56.939 67.344,57.096C69.441,58.217 70.759,60.057 71.158,62.428C71.202,62.692 71.234,62.959 71.255,63.231ZM36.24,61.107C37.732,63.247 40.535,64.385 41.574,64.747C42.653,65.123 43.73,65.399 44.785,65.574C45.92,63.99 47.773,62.859 49.626,62.567C50.504,62.427 51.37,62.432 52.207,62.537L52.548,62.223C53.865,61.003 55.213,59.755 56.701,58.708C56.679,58.707 56.655,58.706 56.633,58.705C53.784,58.584 51.162,57.773 49.09,56.41C48.525,57.057 47.775,57.561 47.009,57.845C45.616,58.361 44.125,58.369 42.683,58.378C42.359,58.38 42.037,58.382 41.717,58.389C40.342,58.422 38.368,58.603 37.107,59.794C36.724,60.156 36.432,60.602 36.24,61.107ZM55.834,63.64C56.963,64.174 57.971,64.823 58.807,65.445C58.884,65.501 58.961,65.559 59.037,65.617C60.264,64.587 61.914,63.962 63.703,63.888C63.947,63.876 64.192,63.877 64.44,63.887C64.713,62.042 64.575,60.136 64.058,58.342C63.67,58.465 63.283,58.582 62.9,58.699C61.503,59.125 60.058,59.566 58.725,60.185C58.513,60.283 58.306,60.387 58.106,60.493C57.551,61.676 56.764,62.757 55.834,63.64ZM52.464,63.368C51.625,64.14 50.756,64.913 49.838,65.625C51.059,65.425 52.202,65.061 53.233,64.533C53.345,64.23 53.48,63.93 53.639,63.637C53.255,63.526 52.863,63.435 52.464,63.368ZM65.223,63.947C66.747,64.124 68.35,64.651 70.008,65.521C70.114,65.577 70.226,65.637 70.341,65.7C70.461,65.026 70.514,64.351 70.494,63.692C68.677,62.538 67.305,60.526 66.617,57.991C66.579,57.849 66.542,57.705 66.508,57.562C66.471,57.545 66.435,57.53 66.397,57.515C65.872,57.729 65.337,57.921 64.801,58.101C65.35,59.991 65.5,62 65.223,63.947ZM45.697,65.702C46.578,65.802 47.443,65.832 48.282,65.789C49.392,65.034 50.431,64.153 51.424,63.255C50.873,63.228 50.314,63.253 49.748,63.342C48.233,63.58 46.716,64.47 45.697,65.702ZM45.183,66.428C44.963,66.792 44.786,67.178 44.663,67.578C44.91,67.506 45.149,67.425 45.379,67.339C45.937,67.127 46.476,66.872 46.999,66.582C46.401,66.564 45.796,66.512 45.183,66.428ZM36.006,62.074C35.977,62.317 35.966,62.567 35.977,62.823C36.031,64.275 36.729,65.714 37.796,66.577C39.547,67.995 41.832,68.169 43.788,67.79C43.898,67.266 44.087,66.764 44.339,66.292C43.341,66.109 42.329,65.841 41.316,65.488C39.006,64.683 37.184,63.491 36.006,62.074ZM59.668,66.114C60.693,66.945 61.664,67.844 62.608,68.726C62.938,68.226 63.23,67.702 63.48,67.156C63.846,66.358 64.118,65.522 64.301,64.667C64.108,64.66 63.922,64.663 63.736,64.671C62.182,64.737 60.749,65.256 59.668,66.114ZM71.055,66.124C71.923,66.679 72.855,67.44 73.474,68.479C73.912,69.215 74.131,70.041 74.131,70.833C78.525,68.028 81.407,63.239 81.803,57.892C81.924,56.244 81.805,54.652 81.461,53.145C80.669,53.949 79.743,54.617 78.716,55.094C78.931,55.668 79.114,56.254 79.247,56.858C79.689,58.86 79.517,61.607 77.713,63.313C76.108,64.83 73.487,65.135 71.28,64.12C71.269,64.781 71.191,65.454 71.055,66.124ZM63.19,69.267C64.102,70.115 65.042,70.974 66.021,71.749C66.218,71.906 66.424,72.066 66.639,72.221C66.913,71.987 67.183,71.731 67.446,71.456C68.752,70.098 69.698,68.329 70.166,66.504C69.999,66.407 69.824,66.311 69.643,66.215C68.055,65.382 66.529,64.881 65.089,64.721C64.897,65.67 64.599,66.598 64.192,67.483C63.907,68.106 63.57,68.701 63.19,69.267ZM53.876,65.08C53.757,65.468 53.683,65.863 53.656,66.261C53.523,68.231 54.642,70.366 56.504,71.703C56.801,71.916 57.117,72.113 57.451,72.292C56.639,70.652 56.781,68.489 57.91,66.849C58.076,66.609 58.26,66.38 58.46,66.164C58.42,66.134 58.38,66.104 58.339,66.073C57.462,65.422 56.388,64.738 55.186,64.205C54.797,64.516 54.39,64.792 53.969,65.029C53.938,65.046 53.907,65.063 53.876,65.08ZM59.081,66.649C58.889,66.851 58.713,67.066 58.557,67.294C57.423,68.941 57.44,71.19 58.572,72.604C59.953,71.759 61.179,70.661 62.152,69.372C61.164,68.45 60.149,67.506 59.081,66.649ZM67.31,72.677C67.629,72.877 67.964,73.062 68.314,73.216C69.665,72.908 70.987,72.457 72.251,71.866C72.614,71.697 72.97,71.515 73.316,71.321C73.433,70.536 73.26,69.653 72.8,68.881C72.377,68.171 71.747,67.537 70.858,66.936C70.336,68.808 69.352,70.607 68.013,71.999C67.782,72.239 67.548,72.465 67.31,72.677ZM66.675,73.201C66.498,73.336 66.321,73.463 66.142,73.583C66.455,73.548 66.768,73.505 67.078,73.455C66.94,73.373 66.807,73.288 66.675,73.201ZM69.789,73.64C70.831,73.756 72.09,73.486 72.798,72.577C72.838,72.527 72.876,72.474 72.911,72.419C72.803,72.473 72.693,72.526 72.583,72.577C71.677,73 70.742,73.355 69.789,73.64ZM59.312,73.06C60.331,73.374 61.468,73.574 62.715,73.658C63.231,73.694 63.748,73.704 64.266,73.7C64.852,73.464 65.434,73.138 66.001,72.726C65.84,72.605 65.684,72.484 65.532,72.364C64.558,71.591 63.629,70.746 62.728,69.908C61.782,71.144 60.617,72.21 59.312,73.06ZM44.486,68.438C44.45,68.782 44.455,69.134 44.507,69.489C44.959,72.583 48.47,74.378 51.544,74.496C53.614,74.563 55.655,74.101 57.497,73.195C56.978,72.946 56.493,72.66 56.047,72.34C53.937,70.826 52.721,68.477 52.873,66.208C52.889,65.981 52.917,65.754 52.959,65.53C51.618,66.114 50.127,66.457 48.545,66.559C47.637,67.162 46.68,67.684 45.656,68.073C45.289,68.211 44.897,68.335 44.486,68.438ZM51.985,75.289C51.828,75.289 51.672,75.285 51.515,75.28C48.124,75.15 44.244,73.115 43.731,69.603C43.682,69.265 43.667,68.932 43.683,68.605C41.592,68.96 39.184,68.711 37.302,67.187C36.046,66.17 35.257,64.55 35.192,62.853C35.17,62.273 35.235,61.719 35.382,61.205C34.882,60.388 34.583,59.512 34.51,58.603C34.34,56.504 35.425,54.277 37.342,52.788C38.194,52.125 39.196,51.596 40.366,51.192C38.784,50.411 37.508,49.253 36.717,47.864C30.812,47.846 -383.639,48.347 -389.453,49.359L-389.588,48.585C-383.856,47.589 30.524,47.081 36.332,47.078C35.407,44.828 35.817,42.193 37.37,40.575C38.805,39.084 40.96,38.589 42.881,38.302L43.008,38.283C42.604,37.753 42.256,37.155 41.977,36.477C41.027,34.174 41.48,30.899 43.876,29.403C45.177,28.591 46.59,28.46 47.898,29.022C51.306,27.042 56.096,27.281 59.895,27.806C61.026,27.075 62.443,26.617 63.997,26.512C66.205,26.367 68.288,26.908 69.84,28.052C71.463,29.247 72.458,31.141 72.468,32.988C72.874,33.363 73.264,33.762 73.633,34.191C75.396,36.234 76.481,38.486 76.869,40.826C77.561,40.316 78.381,39.995 79.285,39.984L79.329,39.984C80.689,39.984 82.091,40.723 83,41.921C83.785,42.956 84.242,44.318 84.32,45.859C84.395,47.32 84.101,48.777 83.516,50.11C85.391,49.878 87.261,49.477 89.101,49.082C93.522,48.135 506.427,47.156 510.917,48.541L510.684,49.291C506.392,47.966 93.785,48.881 89.265,49.849C87.239,50.283 85.178,50.726 83.101,50.948C82.811,51.472 82.474,51.971 82.096,52.435C82.557,54.172 82.727,56.026 82.585,57.949C82.155,63.763 78.916,68.946 74.01,71.827C73.895,72.281 73.696,72.702 73.416,73.06C72.544,74.178 70.929,74.682 69.297,74.356C68.93,74.281 68.577,74.171 68.238,74.036C66.982,74.305 65.703,74.455 64.42,74.482C64.057,74.619 63.692,74.726 63.327,74.8C61.512,75.172 59.646,74.697 58.428,73.59C56.461,74.675 54.236,75.288 51.985,75.289Z" style="fill:rgb(60,60,60);fill-rule:nonzero;"/>
    </g>
</svg>
