<?xml version="1.0" encoding="UTF-8" standalone="no"?>
<!DOCTYPE svg PUBLIC "-//W3C//DTD SVG 1.1//EN" "http://www.w3.org/Graphics/SVG/1.1/DTD/svg11.dtd">
<svg width="100%" height="100%" viewBox="0 0 21260 473" version="1.1" xmlns="http://www.w3.org/2000/svg" xmlns:xlink="http://www.w3.org/1999/xlink" xml:space="preserve" xmlns:serif="http://www.serif.com/" style="fill-rule:evenodd;clip-rule:evenodd;stroke-linejoin:round;stroke-miterlimit:2;">
    <g id="chaos1_40" transform="matrix(22.8976,0,0,22.8976,129.657,-933.012)">
        <path d="M470.269,57.83C467.401,57.83 464.637,57.061 461.927,56.305C458.478,55.345 454.914,54.352 451.176,54.954L450.689,55.037C449.694,55.208 448.664,55.388 447.633,55.161C446.699,54.958 445.982,54.451 445.56,53.697C445.006,52.706 444.973,51.266 445.471,49.846C446.349,47.345 448.183,46.945 450.491,46.681C455.655,46.091 461.015,47.987 464.484,51.629C464.648,51.801 464.81,51.978 464.972,52.155C465.664,52.911 466.316,53.625 467.172,54.018C467.759,54.286 468.51,54.315 469.081,54.087C469.355,53.979 469.719,53.76 469.896,53.331C470.22,52.541 469.715,51.582 469.234,50.916C466.506,47.142 461.25,42.735 455.283,42.855C451.125,42.944 450.175,43.441 446.176,44.471C445.054,44.76 441.111,46.837 439.988,47.106C437.493,47.702 433.878,49.408 430.513,49.469C429.49,49.475 -4.463,49.327 -5.528,49.149L-5.397,48.371C-4.372,48.544 429.541,48.698 430.5,48.68C433.789,48.621 437.349,46.927 439.805,46.339C440.923,46.072 444.861,43.995 445.978,43.707C450.021,42.667 451.017,42.158 455.265,42.068C461.494,41.916 466.993,46.471 469.873,50.455C470.731,51.642 470.991,52.739 470.625,53.63C470.402,54.173 469.968,54.584 469.371,54.821C468.597,55.124 467.63,55.093 466.844,54.735C465.842,54.276 465.104,53.468 464.39,52.687C464.232,52.514 464.074,52.341 463.914,52.172C460.611,48.704 455.494,46.9 450.581,47.464C448.352,47.719 446.946,48.024 446.215,50.107C445.791,51.317 445.803,52.516 446.249,53.313C446.561,53.872 447.083,54.235 447.801,54.392C448.679,54.582 449.592,54.427 450.555,54.26L451.051,54.177C454.959,53.546 458.609,54.563 462.139,55.546C466.714,56.821 471.038,58.025 475.813,55.861C477.818,54.953 479.64,53.612 481.403,52.314C482.574,51.452 483.784,50.562 485.049,49.792C485.788,49.344 486.533,48.975 487.292,48.683C487.677,48.535 488.326,48.407 488.976,48.297C489.337,48.236 490.133,48.181 490.822,48.132C491.337,48.095 922.415,47.959 922.583,47.929L922.723,48.705C922.548,48.736 491.447,48.873 490.907,48.912C490.206,48.963 489.403,49.019 489.032,49.082C488.458,49.179 487.903,49.292 487.571,49.42C486.856,49.695 486.155,50.043 485.458,50.466C484.223,51.217 483.027,52.097 481.871,52.948C480.075,54.27 478.218,55.637 476.139,56.579C474.127,57.49 472.175,57.83 470.269,57.83Z" style="fill:rgb(60,60,60);fill-rule:nonzero;"/>
    </g>
</svg>
