<?xml version="1.0" encoding="UTF-8" standalone="no"?>
<!DOCTYPE svg PUBLIC "-//W3C//DTD SVG 1.1//EN" "http://www.w3.org/Graphics/SVG/1.1/DTD/svg11.dtd">
<svg width="100%" height="100%" viewBox="0 0 21260 733" version="1.1" xmlns="http://www.w3.org/2000/svg" xmlns:xlink="http://www.w3.org/1999/xlink" xml:space="preserve" xmlns:serif="http://www.serif.com/" style="fill-rule:evenodd;clip-rule:evenodd;stroke-linejoin:round;stroke-miterlimit:2;">
    <g id="chaos2" transform="matrix(22.8976,0,0,22.8976,2124.76,-737.192)">
        <path d="M364.012,42.084C364.126,42.104 364.243,42.128 364.359,42.158C366.436,42.686 367.666,44.72 368.854,46.686C369.815,48.276 370.808,49.919 372.222,50.724C373.267,51.32 374.522,51.347 375.755,50.797C377.407,50.063 378.682,48.468 379.084,46.636C379.793,43.398 378.06,39.568 375.22,38.098C372.641,36.763 369.251,37.237 366.584,39.304C365.603,40.066 364.737,41.011 364.012,42.084ZM356.59,46.969C356.552,48.36 356.804,49.74 357.492,50.952C358.414,52.578 359.905,53.494 361.309,54.01C360.962,52.648 360.796,51.226 360.833,49.801C360.896,47.33 361.57,44.903 362.711,42.817C361.22,43.081 359.871,44.254 358.554,45.398C358.122,45.774 357.696,46.144 357.275,46.473C357.048,46.65 356.82,46.815 356.59,46.969ZM362.137,54.274C362.348,54.331 362.554,54.381 362.751,54.423C363.87,54.662 365.035,54.76 366.162,54.854C367.167,54.938 368.208,55.025 369.228,55.211C371.488,55.625 373.663,56.53 375.766,57.405C376.611,57.756 377.457,58.108 378.308,58.429C379.135,58.74 380.104,59.074 381.155,59.33C381.338,59.129 381.516,58.92 381.686,58.704C384.55,55.08 385.506,50.169 384.308,45.232C383.1,40.256 379.942,36.18 375.859,34.328C369.477,31.431 361.471,34.691 358.01,41.585C357.37,42.864 356.844,44.424 356.659,46.022C356.713,45.981 356.769,45.938 356.824,45.895C357.235,45.573 357.651,45.212 358.074,44.845C359.568,43.547 361.228,42.104 363.174,42.031C363.987,40.744 364.987,39.616 366.135,38.726C369.03,36.482 372.728,35.983 375.556,37.448C378.725,39.087 380.588,43.192 379.799,46.792C379.348,48.849 377.913,50.64 376.053,51.467C374.603,52.113 373.115,52.075 371.859,51.361C370.281,50.461 369.237,48.735 368.227,47.065C367.064,45.14 365.964,43.322 364.179,42.867C363.976,42.817 363.776,42.784 363.579,42.77C362.356,44.839 361.629,47.304 361.565,49.821C361.526,51.334 361.728,52.845 362.137,54.274ZM362.399,55.095C363.162,57.271 364.417,59.213 366.041,60.627C368.142,62.456 370.877,63.319 373.75,63.049C376.292,62.813 378.7,61.698 380.561,59.935C379.64,59.689 378.79,59.394 378.05,59.114C377.191,58.79 376.337,58.436 375.485,58.08C373.417,57.221 371.279,56.331 369.095,55.932C368.111,55.751 367.088,55.666 366.1,55.583C364.951,55.488 363.761,55.389 362.598,55.14C362.533,55.125 362.466,55.111 362.399,55.095ZM372.725,63.83C370.056,63.83 367.545,62.908 365.56,61.18C363.725,59.581 362.336,57.351 361.552,54.865C359.884,54.344 357.993,53.321 356.855,51.314C356.175,50.116 355.882,48.776 355.859,47.419C352.35,49.401 348.475,49.063 344.709,48.735C341.794,48.481 -89.69,48.213 -92.496,49.041L-92.703,48.338C-89.767,47.47 341.787,47.744 344.773,48.005C348.728,48.349 352.484,48.677 355.878,46.558C355.999,44.65 356.599,42.765 357.356,41.257C360.992,34.015 369.426,30.608 376.162,33.66C380.448,35.605 383.759,39.865 385.02,45.059C386.272,50.217 385.266,55.357 382.26,59.159C382.167,59.278 382.071,59.395 381.973,59.509C383.686,59.842 385.558,59.918 387.352,59.356C389.95,58.54 392.322,56.204 394.615,53.946C397.614,50.993 400.698,47.958 404.482,47.992C405.324,48 834.597,48.16 835.516,48.507L835.256,49.193C834.431,48.881 405.247,48.734 404.487,48.724C401.008,48.678 398.136,51.506 395.128,54.468C392.774,56.787 390.338,59.186 387.571,60.055C385.485,60.708 383.322,60.562 381.398,60.139C379.376,62.204 376.676,63.512 373.818,63.779C373.452,63.813 373.086,63.83 372.725,63.83Z" style="fill:rgb(3,4,4);fill-rule:nonzero;"/>
    </g>
</svg>
