<?xml version="1.0" encoding="UTF-8" standalone="no"?>
<!DOCTYPE svg PUBLIC "-//W3C//DTD SVG 1.1//EN" "http://www.w3.org/Graphics/SVG/1.1/DTD/svg11.dtd">
<svg width="100%" height="100%" viewBox="0 0 21260 1040" version="1.1" xmlns="http://www.w3.org/2000/svg" xmlns:xlink="http://www.w3.org/1999/xlink" xml:space="preserve" xmlns:serif="http://www.serif.com/" style="fill-rule:evenodd;clip-rule:evenodd;stroke-linejoin:round;stroke-miterlimit:2;">
    <g id="chaos3_88" transform="matrix(22.8976,0,0,22.8976,4389.24,-620.722)">
        <path d="M265.008,42.921C266.324,43.423 267.726,44.578 269.198,46.377C271.503,49.195 274.257,50.181 276.563,49.009C278.102,48.228 278.998,46.618 278.646,45.266C277.821,42.075 275.057,38.739 272.003,38.947C268.364,39.18 266.181,40.358 265.008,42.921ZM270.546,35.559C271.097,35.559 271.654,35.588 272.217,35.65C278.813,36.362 285.383,41.679 284.651,48.458C284.484,50.012 283.902,51.543 283.025,52.957C284.745,51.818 286.139,50.551 286.355,48.553C286.795,44.477 284.336,40.454 282.197,37.798C280.589,35.801 277.197,32.375 272.531,31.871C268.539,31.443 265.375,33.989 262.322,36.452L261.941,36.76C259.307,38.88 256.548,41.658 256.058,46.186C255.982,46.902 255.93,47.596 255.904,48.269C256.469,48.098 257.017,47.845 257.535,47.527C257.538,47.105 257.562,46.679 257.608,46.253C258.282,40.011 263.818,35.559 270.546,35.559ZM264.714,43.653C264.392,44.569 264.171,45.636 264.039,46.868C263.707,49.94 264.031,52.81 264.952,54.95C266.035,57.465 267.852,58.878 270.354,59.149C272.132,59.341 274.006,58.978 275.77,58.215C276.337,57.787 276.897,57.309 277.478,56.814C277.904,56.45 278.336,56.081 278.789,55.717C279.555,55.1 280.452,54.548 281.328,54.015C282.712,52.326 283.656,50.37 283.872,48.374C284.553,42.061 278.352,37.101 272.133,36.429C265.101,35.673 259.07,40.023 258.387,46.337C258.364,46.547 258.347,46.757 258.336,46.967C259.307,46.201 260.138,45.213 260.743,44.141C260.786,44.071 261.621,42.753 263.311,42.641C263.62,42.622 263.93,42.642 264.245,42.701C265.52,39.792 267.947,38.421 271.953,38.163C275.451,37.931 278.481,41.499 279.406,45.069C279.854,46.798 278.808,48.749 276.918,49.708C275.922,50.214 272.379,51.505 268.59,46.873C267.214,45.192 265.898,44.102 264.714,43.653ZM258.325,47.948C258.407,50.708 259.48,53.338 261.424,55.484C263.689,57.985 266.859,59.569 270.351,59.947C270.76,59.991 271.15,60 271.52,59.98C271.1,59.985 270.683,59.973 270.27,59.928C267.505,59.629 265.417,58.015 264.231,55.26C263.258,52.998 262.913,49.988 263.259,46.784C263.395,45.52 263.624,44.412 263.955,43.449C263.755,43.421 263.565,43.412 263.375,43.423C262.088,43.502 261.445,44.498 261.418,44.541C260.667,45.87 259.59,47.08 258.325,47.948ZM255.885,49.089C255.856,53.046 256.765,56.196 258.601,58.476C261.308,61.839 265.936,62.753 270.106,63.203C274.917,63.727 278.098,61.517 281.47,58.802C282.419,58.038 283.528,57.327 284.701,56.575C287.899,54.526 291.206,52.406 291.573,49.004C292.072,44.39 288.443,39.931 285.527,36.348L284.82,35.477C281.648,31.536 277.076,30.547 272.607,30.065C271.614,29.957 270.587,29.813 269.549,29.666C264.9,29.009 260.087,28.328 256.959,30.847C253.039,34.003 251.878,40.495 251.305,45.799C251.236,46.445 251.203,47.088 251.208,47.728C251.56,47.853 251.917,47.989 252.28,48.134C253.229,48.516 254.19,48.597 255.113,48.451C255.136,47.695 255.192,46.91 255.28,46.102C255.799,41.29 258.69,38.37 261.449,36.149L261.829,35.842C264.859,33.397 268.291,30.621 272.615,31.092C277.562,31.626 281.125,35.214 282.808,37.306C286.055,41.338 287.511,45.151 287.134,48.637C286.815,51.599 284.304,53.125 281.875,54.6C281.845,54.618 281.815,54.637 281.785,54.656C280.289,56.42 278.34,57.896 276.24,58.843C274.578,60.095 272.78,61.002 270.267,60.726C266.583,60.328 263.237,58.654 260.842,56.01C258.875,53.838 257.747,51.199 257.562,48.415C257.026,48.707 256.463,48.937 255.885,49.089ZM269.931,71.338C269.745,71.338 269.556,71.327 269.365,71.307C263.559,70.681 259.402,65.51 256.061,61.356L255.768,60.991C252.36,56.757 250.601,52.581 250.435,48.297C247.661,47.41 244.938,47.305 240.116,48.552C234.409,50.028 -191.444,48.708 -191.607,48.552L-191.075,47.977C-191.061,47.988 234.637,49.158 239.918,47.792C244.787,46.534 247.603,46.61 250.422,47.47C250.427,46.887 250.462,46.302 250.526,45.715C251.115,40.261 252.323,33.573 256.467,30.236C259.859,27.505 264.839,28.208 269.66,28.889C270.689,29.034 271.706,29.179 272.691,29.285C277.105,29.762 282.071,30.811 285.431,34.985L286.135,35.853C289.143,39.549 292.886,44.149 292.352,49.088C291.945,52.864 288.322,55.187 285.125,57.237C283.969,57.977 282.878,58.676 281.962,59.413C278.451,62.24 275.128,64.532 270.022,63.983C265.693,63.516 260.877,62.554 257.989,58.968C256.064,56.575 255.096,53.315 255.1,49.246C254.084,49.387 253.032,49.282 251.987,48.863C251.733,48.76 251.483,48.663 251.234,48.572C251.466,52.579 253.165,56.506 256.379,60.499L256.672,60.864C259.922,64.906 263.966,69.936 269.449,70.528C271.838,70.779 273.952,69.027 276,67.326C277.255,66.284 278.554,65.207 279.904,64.61C280.461,64.363 281.007,64.132 281.542,63.906C284.429,62.685 286.922,61.631 288.825,59.033C288.852,58.994 292.089,54.325 293.868,50.364C295.38,46.988 298.727,45.901 303.283,47.293C306.244,48.198 736.575,47.784 736.638,47.781L736.693,48.564C736.437,48.579 306.154,48.992 303.053,48.043C300.132,47.15 296.29,46.883 294.583,50.684C292.774,54.714 289.496,59.442 289.463,59.489C287.428,62.269 284.841,63.363 281.847,64.628C281.317,64.853 280.775,65.081 280.222,65.326C278.971,65.881 277.771,66.876 276.501,67.93C274.48,69.608 272.395,71.338 269.931,71.338Z" style="fill:rgb(60,60,60);fill-rule:nonzero;"/>
    </g>
</svg>
