<?xml version="1.0" encoding="UTF-8" standalone="no"?>
<!DOCTYPE svg PUBLIC "-//W3C//DTD SVG 1.1//EN" "http://www.w3.org/Graphics/SVG/1.1/DTD/svg11.dtd">
<svg width="100%" height="100%" viewBox="0 0 21260 1111" version="1.1" xmlns="http://www.w3.org/2000/svg" xmlns:xlink="http://www.w3.org/1999/xlink" xml:space="preserve" xmlns:serif="http://www.serif.com/" style="fill-rule:evenodd;clip-rule:evenodd;stroke-linejoin:round;stroke-miterlimit:2;">
    <g id="chaos4_94" transform="matrix(22.8976,0,0,22.8976,6801.53,-559.603)">
        <path d="M174.588,27.198C177.256,28.444 179.627,30.13 181.529,32.13C181.124,30.453 180.174,28.963 178.811,28.071C177.587,27.269 176.074,27 174.588,27.198ZM154.743,32.339C156.466,32.506 158.116,33.119 159.458,34.168C159.854,34.478 160.216,34.824 160.542,35.2C162.624,34.572 164.975,34.354 167.476,34.573C167.448,32.957 167.851,31.344 168.883,29.802C169.702,28.578 170.882,27.651 172.207,27.068C171.883,26.951 171.556,26.842 171.227,26.739C166.765,25.347 162.553,25.482 159.367,27.12C157.345,28.16 155.56,30.092 154.743,32.339ZM154.505,33.107C154.186,34.36 154.175,35.688 154.591,36.996C154.737,37.455 154.936,37.905 155.182,38.339C156.209,37.318 157.456,36.457 158.86,35.827C159.142,35.7 159.431,35.582 159.727,35.474C159.494,35.229 159.242,34.999 158.973,34.789C157.707,33.8 156.139,33.237 154.505,33.107ZM161.061,35.87C161.616,36.667 162.029,37.56 162.288,38.489C164.249,38.026 166.302,37.981 167.951,38.295C168.045,38.313 168.144,38.332 168.245,38.353C167.882,37.372 167.626,36.372 167.524,35.368C165.196,35.155 163.006,35.326 161.061,35.87ZM168.276,34.656C168.417,34.672 168.558,34.691 168.7,34.71C171.906,35.157 174.511,36.183 176.443,37.759C177.37,38.516 178.134,39.411 178.706,40.381C179.972,39.217 180.911,37.813 181.393,36.295C181.679,35.397 181.788,34.459 181.737,33.542C179.584,30.985 176.656,28.881 173.291,27.487C171.796,27.962 170.43,28.906 169.538,30.239C168.592,31.654 168.233,33.149 168.276,34.656ZM155.617,39.019C156.112,39.713 156.732,40.355 157.453,40.916C158.546,39.879 159.992,39.148 161.535,38.69C161.276,37.769 160.85,36.887 160.271,36.116C159.897,36.245 159.535,36.389 159.182,36.546C157.809,37.162 156.599,38.011 155.617,39.019ZM158.107,41.385C158.371,41.559 158.644,41.722 158.928,41.874C159.707,42.292 160.555,42.637 161.502,42.916C161.855,41.826 161.916,40.632 161.712,39.47C160.34,39.883 159.068,40.519 158.107,41.385ZM169.184,38.582C170.115,38.85 171.147,39.281 171.995,40.028C173.026,40.938 173.532,42.072 173.437,43.212C173.952,43.073 174.449,42.907 174.931,42.718C176.102,42.259 177.171,41.64 178.098,40.902C177.566,39.965 176.837,39.099 175.945,38.37C174.126,36.886 171.652,35.918 168.59,35.491C168.505,35.48 168.42,35.468 168.335,35.457C168.46,36.507 168.764,37.556 169.184,38.582ZM169.619,39.555C170.296,40.958 171.162,42.302 172.045,43.526C172.238,43.491 172.427,43.453 172.615,43.413C172.805,42.426 172.405,41.441 171.473,40.619C170.978,40.183 170.372,39.833 169.619,39.555ZM162.261,43.12C163.23,43.359 164.297,43.536 165.489,43.662C167.576,43.881 169.46,43.883 171.172,43.66C170.211,42.301 169.289,40.806 168.605,39.244C168.352,39.181 168.085,39.122 167.804,39.07C166.237,38.772 164.3,38.829 162.466,39.267C162.704,40.563 162.646,41.899 162.261,43.12ZM161.981,43.864C161.861,44.134 161.722,44.398 161.565,44.651C160.913,45.707 160.042,46.539 159.059,47.243C162.516,47.131 165.962,46.853 169.325,46.23C170.427,46.026 171.37,45.483 171.97,44.75C171.878,44.629 171.788,44.507 171.696,44.383C169.809,44.67 167.725,44.692 165.407,44.446C164.142,44.313 163.009,44.121 161.981,43.864ZM157.547,41.959C156.414,43.285 156.07,44.901 156.525,46.765C156.569,46.945 156.621,47.122 156.681,47.297C156.975,47.293 157.269,47.288 157.562,47.282C158.909,46.481 160.084,45.548 160.895,44.237C161.011,44.047 161.118,43.852 161.211,43.652C160.24,43.362 159.364,43.003 158.555,42.57C158.205,42.381 157.869,42.177 157.547,41.959ZM144.851,47.243C146.427,47.243 148.01,47.261 149.594,47.279C150.48,47.288 151.372,47.298 152.264,47.304C152.02,45.91 152.045,44.509 152.365,43.199C152.742,41.651 153.525,40.195 154.621,38.938C154.29,38.392 154.026,37.821 153.839,37.235C153.395,35.835 153.389,34.419 153.707,33.077C152.074,33.089 150.414,33.528 148.954,34.402C146.012,36.163 143.982,39.576 143.656,43.31C143.542,44.601 143.622,45.925 143.881,47.246C144.205,47.244 144.528,47.243 144.851,47.243ZM153.065,47.31C153.994,47.315 154.923,47.315 155.856,47.307C155.821,47.189 155.789,47.071 155.759,46.952C155.252,44.875 155.651,42.996 156.91,41.491C156.203,40.932 155.584,40.299 155.078,39.615C154.136,40.739 153.461,42.025 153.13,43.385C152.827,44.634 152.812,45.976 153.065,47.31ZM175.756,48.125L175.838,48.125C176.541,48.13 177.233,48.196 177.907,48.318C178.551,47.35 178.959,46.281 179.075,45.191C179.2,44.005 178.977,42.775 178.46,41.617C177.502,42.362 176.41,42.985 175.218,43.452C174.587,43.699 173.932,43.907 173.249,44.075C173.168,44.301 173.067,44.518 172.944,44.726C173.012,44.815 173.081,44.902 173.149,44.989L173.532,45.478C174.212,46.347 174.902,47.226 175.568,48.126C175.631,48.126 175.694,48.125 175.756,48.125ZM153.247,48.099C153.357,48.508 153.493,48.914 153.652,49.315C154.064,49.103 154.478,48.897 154.889,48.693C155.292,48.492 155.692,48.294 156.084,48.093C155.135,48.103 154.19,48.102 153.247,48.099ZM176.144,48.92C176.336,49.191 176.526,49.463 176.711,49.739C176.948,49.512 177.169,49.275 177.375,49.029C176.97,48.971 176.559,48.934 176.144,48.92ZM178.727,48.497C179.841,48.781 180.89,49.224 181.826,49.797C182.758,48.808 183.855,48.015 185.41,47.49C186.219,43.744 185.554,39.524 183.47,35.985C183.179,35.489 182.861,35.006 182.517,34.536C182.474,35.208 182.352,35.881 182.145,36.533C181.601,38.242 180.531,39.815 179.086,41.098C179.725,42.438 180.005,43.881 179.858,45.273C179.74,46.394 179.347,47.491 178.727,48.497ZM182.491,50.241C182.995,50.607 183.457,51.014 183.868,51.457C183.979,51.27 184.085,51.08 184.187,50.888C184.599,50.106 184.928,49.278 185.176,48.417C184.067,48.865 183.228,49.482 182.491,50.241ZM157.183,48.404C157.981,49.808 159.314,51.012 160.974,51.781C161.834,52.178 162.775,52.469 163.808,52.656C164.428,52.199 165.109,51.749 165.854,51.302C168.977,49.425 171.858,48.394 174.618,48.171C174.056,47.424 173.481,46.691 172.912,45.964L172.528,45.475C172.505,45.446 172.482,45.416 172.459,45.387C171.741,46.192 170.685,46.78 169.469,47.005C165.634,47.715 161.704,47.983 157.779,48.067C157.583,48.182 157.383,48.293 157.183,48.404ZM164.947,52.816C165.868,52.909 166.855,52.931 167.917,52.883C170.85,52.746 173.189,52.128 175.069,50.993C175.439,50.77 175.788,50.526 176.114,50.263C175.811,49.812 175.498,49.366 175.177,48.926C172.391,49.048 169.466,50.05 166.26,51.978C165.796,52.256 165.359,52.535 164.947,52.816ZM177.152,50.406C177.823,51.448 178.434,52.53 178.948,53.666C179.174,53.342 179.392,53.027 179.603,52.719C180.178,51.88 180.714,51.099 181.297,50.396C180.38,49.851 179.348,49.441 178.251,49.192C177.926,49.62 177.559,50.028 177.152,50.406ZM144.058,48.033C144.536,49.93 145.385,51.806 146.575,53.552C146.929,54.073 147.31,54.575 147.714,55.057C148.017,54.228 148.438,53.457 148.977,52.78C150.039,51.445 151.455,50.5 152.953,49.685C152.74,49.162 152.566,48.63 152.432,48.094C151.48,48.087 150.531,48.077 149.585,48.067C147.738,48.046 145.895,48.026 144.058,48.033ZM179.304,54.524C179.466,54.951 179.612,55.4 179.738,55.863C181.199,54.834 182.459,53.573 183.43,52.147C183.001,51.66 182.508,51.218 181.962,50.829C181.383,51.517 180.846,52.3 180.252,53.165C180.001,53.531 179.741,53.91 179.465,54.299C179.413,54.374 179.359,54.449 179.304,54.524ZM153.97,50.037C154.255,50.631 154.595,51.206 154.988,51.755C156.243,53.51 158.036,55.038 160.236,56.239C160.945,55.196 161.849,54.226 162.989,53.292C162.151,53.098 161.371,52.832 160.643,52.495C158.827,51.656 157.365,50.327 156.487,48.772C156.073,48.986 155.655,49.193 155.24,49.399C154.817,49.609 154.392,49.82 153.97,50.037ZM178.734,55.268C178.053,56.112 177.304,56.898 176.5,57.619C177.391,57.261 178.244,56.826 179.044,56.323C178.954,55.962 178.849,55.609 178.734,55.268ZM160.94,56.605C161.297,56.781 161.665,56.95 162.041,57.111C166.12,58.846 170.512,59.264 174.415,58.294C175.919,57.198 177.272,55.891 178.41,54.405C178.371,54.311 178.331,54.219 178.291,54.127C177.798,53.015 177.204,51.952 176.548,50.925C176.211,51.192 175.854,51.44 175.477,51.667C173.482,52.872 171.021,53.528 167.955,53.67C166.517,53.737 165.209,53.678 164.01,53.489C162.709,54.481 161.705,55.502 160.94,56.605ZM148.314,55.738C151.019,58.669 154.618,60.744 158.501,61.639C158.492,60.066 158.935,58.412 159.814,56.906C157.53,55.652 155.662,54.053 154.347,52.214C153.934,51.637 153.576,51.031 153.274,50.407C151.871,51.177 150.556,52.06 149.594,53.27C149.02,53.992 148.592,54.832 148.314,55.738ZM159.291,61.804C160.386,62.009 161.501,62.12 162.623,62.13C166.136,62.178 169.647,61.189 172.679,59.426C169.13,59.906 165.312,59.358 161.732,57.835C161.315,57.658 160.908,57.47 160.512,57.272C159.661,58.72 159.247,60.311 159.291,61.804ZM159.362,62.617C159.459,63.278 159.653,63.908 159.944,64.488C160.792,66.176 162.486,67.491 164.59,68.098C166.361,68.607 168.37,68.642 170.73,68.203C173.071,67.77 176.234,66.721 178.017,64.184C179.482,62.099 179.663,59.493 179.223,57.138C177.85,57.968 176.34,58.611 174.751,59.022C171.291,61.502 167.074,62.919 162.792,62.919L162.615,62.919C161.522,62.909 160.434,62.807 159.362,62.617ZM148.088,56.645C147.692,58.71 148.016,61.008 149.089,62.989C151.615,67.648 156.907,70.818 163.244,71.469C168.827,72.037 174.64,70.42 179.617,66.906C183.919,63.867 187.407,58.707 184.29,53.337C184.181,53.151 184.065,52.97 183.94,52.793C182.879,54.295 181.511,55.616 179.935,56.683C180.482,59.299 180.33,62.263 178.662,64.637C176.726,67.391 173.359,68.518 170.875,68.979C168.392,69.44 166.265,69.399 164.372,68.856C162.057,68.189 160.186,66.726 159.239,64.841C158.87,64.107 158.641,63.3 158.548,62.457C154.594,61.592 150.911,59.549 148.088,56.645ZM165.46,72.369C164.693,72.369 163.926,72.331 163.164,72.252C156.567,71.575 151.046,68.252 148.396,63.364C147.142,61.049 146.837,58.327 147.44,55.947C146.896,55.329 146.388,54.679 145.922,53.995C144.642,52.115 143.739,50.088 143.249,48.038C141.728,48.043 140.24,47.99 138.803,47.938C134.526,47.781 -292.142,47.638 -296.415,49.06L-296.663,48.312C-292.258,46.844 134.48,46.993 138.832,47.15C140.196,47.199 141.603,47.25 143.041,47.25L143.081,47.25C142.829,45.906 142.755,44.558 142.871,43.241C143.218,39.261 145.394,35.614 148.549,33.726C150.198,32.739 152.08,32.269 153.93,32.294C154.782,29.758 156.758,27.575 159.005,26.419C162.378,24.685 166.802,24.531 171.461,25.987C172.104,26.187 172.734,26.412 173.35,26.66C175.365,26.102 177.549,26.301 179.243,27.41C181.115,28.637 182.29,30.858 182.5,33.229C183.116,33.979 183.668,34.767 184.15,35.584C186.256,39.162 186.977,43.41 186.262,47.243C186.292,47.236 186.321,47.229 186.351,47.222C190.124,46.313 193.757,47.109 197.27,47.876C200.808,48.651 627.175,49.456 630.935,48.474L631.134,49.236C627.194,50.269 200.731,49.44 197.102,48.647C193.516,47.864 190.131,47.125 186.535,47.988C186.376,48.026 186.223,48.067 186.074,48.11C185.801,49.209 185.405,50.267 184.884,51.255C184.735,51.539 184.575,51.82 184.404,52.093C184.612,52.364 184.801,52.648 184.971,52.941C188.356,58.772 184.66,64.311 180.072,67.55C175.617,70.696 170.505,72.369 165.46,72.369Z" style="fill:rgb(60,60,60);fill-rule:nonzero;"/>
    </g>
</svg>
